<mxfile host="app.diagrams.net" modified="2022-09-14T05:17:20.015Z" agent="5.0 (Windows NT 6.1; Win64; x64) AppleWebKit/537.36 (KHTML, like Gecko) Chrome/104.0.0.0 Safari/537.36" etag="K177LnnJaPXj4evW384m" version="20.3.0" type="github">
  <diagram id="4agPaX2Iubezr_NHaOIM" name="Page-1">
    <mxGraphModel dx="4328" dy="6337" grid="1" gridSize="3" guides="1" tooltips="1" connect="1" arrows="1" fold="1" page="1" pageScale="1" pageWidth="827" pageHeight="1169" background="#FFFFFF" math="0" shadow="1">
      <root>
        <mxCell id="0" />
        <mxCell id="1" parent="0" />
        <mxCell id="5GXkYhnuSkyJWKg_0dOM-12" value="A Block that &lt;br&gt;&lt;span style=&quot;white-space: pre;&quot;&gt;	&lt;/span&gt;represents the transaction" style="text;html=1;align=center;verticalAlign=middle;resizable=0;points=[];autosize=1;strokeColor=none;fillColor=none;" parent="1" vertex="1">
          <mxGeometry x="-2863" y="-4627.3099999999995" width="190" height="40" as="geometry" />
        </mxCell>
        <mxCell id="5GXkYhnuSkyJWKg_0dOM-17" style="edgeStyle=orthogonalEdgeStyle;rounded=0;orthogonalLoop=1;jettySize=auto;html=1;entryX=0;entryY=0.5;entryDx=0;entryDy=0;" parent="1" edge="1">
          <mxGeometry relative="1" as="geometry">
            <mxPoint x="-2925" y="-4560.81" as="sourcePoint" />
            <mxPoint x="-2826" y="-4671.12" as="targetPoint" />
            <Array as="points">
              <mxPoint x="-2934" y="-4560.81" />
              <mxPoint x="-2934" y="-4559.81" />
              <mxPoint x="-2877" y="-4559.81" />
              <mxPoint x="-2877" y="-4670.81" />
            </Array>
          </mxGeometry>
        </mxCell>
        <mxCell id="myLRy50kYtt4ydvngu8z-38" style="edgeStyle=orthogonalEdgeStyle;rounded=0;orthogonalLoop=1;jettySize=auto;html=1;entryX=0;entryY=0.5;entryDx=0;entryDy=0;fontSize=35;fontColor=#000000;" parent="1" source="5GXkYhnuSkyJWKg_0dOM-15" target="5GXkYhnuSkyJWKg_0dOM-33" edge="1">
          <mxGeometry relative="1" as="geometry" />
        </mxCell>
        <mxCell id="5GXkYhnuSkyJWKg_0dOM-15" value="" style="shape=image;verticalLabelPosition=bottom;labelBackgroundColor=default;verticalAlign=top;aspect=fixed;imageAspect=0;image=data:image/png,iVBORw0KGgoAAAANSUhEUgAAAKQAAAB6CAYAAAAxgfgeAAAgAElEQVR4nO2deXwUVbq/n1Pd2RNCAgkkJCSyhUUGRFYBUUEFZbwuOOLVn4IXR53x6txR8A6jiM6od2ZAVIRRUccZGUABYXAQBVEU2WQ1AcK+hiUhJCEhSydVdX5/1NLVnU5EFtMx/c2nPlV9qrrSp+vp92zveY8ApKqquFwuQgo+SSnp0qULu3fvrnUuOTmZlStXcvnllzfAJ7s0Uhr6A4RUv7KzswPCCFBQUMCwYcM4evToj/ypLp3cDf0BQqpf8+fPr5UmhKBPnz7ceeedjBo1ivT09Ab4ZJdGISCDWFJKG0ghBH379uXOO+/kjjvuICMjAyFEA3/Ci68QkEGsnJwcEhISmDJlCqNGjaJt27Y/SQidEoQaNUErTdNQFOUnD6FTIQsZxGqKRiLUyg4pqBQCMqSgUqjIPg9JKe3j8vJyKisriYqKIiYmBqBJ1fkutkIW8gdISsnp06eZMWMGN910E8nJycTFxdn7pKQkRowYwfTp0yksLGzoj9toJVVVlSHVr9LSUvnUU0/JmJgYCXzvFh0dLZ988kl55syZhv7ojUqhbp/vkZSSbdu2ceedd7J//34AosLDubbHz+jfOYvLWrcmOjKCiioPB/NPsmHXHr78LpsKjweAyy67jA8//JArr7wyVJSfg0JA1iMpJd988w0333wzZWVluF0uxt4wjAdHDCchNhYU4YVMgkSCLjlTXs7bn37GO58up0bTiImJYcmSJVx33XUNm6FGoBCQ9WjPnj3069ePkpISkuKbMfPRX9GzfXuES0FYHdZCMb9FQEqk1JG6jtR0cg4e5JHpM8kvKSEuLo7169fTtWvXhs5WUCsEZB1SVZUBAwawadMmEmJjmfe7CbRLTUVxKQiXCxQXwraQwrCOUiJ1CbqGrmlITefQyRPc/dJfKCwtpWfPnnz77beEhYU1dPaCVqFWdh36xz/+waZNmwD4y7ixtEtNMWF0I1xuFLfLPhaOY8XtQrjdKC43ikshs3Vrpjz4AADbtm3jnXfeachsBb1CQAaQlJKpU6cCcP0VPbm6e3ejiLbhcyEUc+92GfAFSBcuN0JxcVXXrtzU50oApk6diq7rDZm9oFYIyAD67rvv2LlzJwAP3DjMgFFxgbkXLmNTrLqkIhCKYhfnQjE2rGtcCg/ccAMA+/btsy1vSLUVAjKAVq1aBUCLuDiuaN/BBk64jIaM8dqoPyrCgFQRCjjPKQJFMRo9Qgi6X5ZJ64TmPvcPqbZCQPpJSsmuXbsA6JaRjstsTVsbjtcIBRSXvVcUl3lOMVvfwoBUCBQh6Na2LQC5ubkNmcWgVgjIADp9+jQALZo1s6HywoXj2Pz6hMDojbSuM8ez/bYWzeIAKCoq8hkPD8mrEJB+EkLYXWCaZjY+LHak49hxQvgnY3aSS3COzWhmY8btdodGbepQyNvHT1JKUlJSADh2+rTRt4hESomQvnuQVg+kt1PcOmduzuNjp4sA7PuHVFshCxlAPXv2BGDHkSNUVntAl6DrSKmDlOi6dACogdSQUrPPG9dbMBqQemqqyTl4CIAePXo0ZPaCWiEg/SSE4Prrr0dRFKqqa1ixZasJno7UDQgxhwalbmy67j2206WO1DU7/Ytt2ZR7PPb9QwqsEJABlJKSwvDhwwH469Jl1NSoSE0HzRwS1DV03RgaNDYN3TzWdfO8poMJp6Zq/HXpJwBcd911ZGRkNGT2glohIANICMH48eMB2Hf8BG99sgxd19A1FVQNXdWQmmaC6Ptamq9RVXTNAHnWsmXkHs0D4Jlnngk1aOpRCEg/SSn5+OOPeeCBB+y0L7JzTNh0E8oaZI2KrqpIVTXOqebrGiPNgvHTjRuZtmgJAPfffz9DhgxpqKw1CoWAdKiiooJx48Zxyy23cPDgQRQhGNmnN/369OHfubtR1Wp0VUNTNXS1BmltNdX2sa7WoGsquqqhazW89elydLPPcfPmzXz22WehPsh6FHI/M1VYWMjIkSPZsGEDAL3at2Pyf44mKy2Val2yYHsupVVV/LxLJ9Kax4NweTu/LdndPBr5ZWf5d+4eTp8+zXc5OWzcs9e+7P7772f69OnExcX92NkMeoWABIqLi7nmmmvIzs5GAI/cNJxHR96Ey+3yDhEKhW0nTrBi9z4SoiL5WetkMhMSSIyOwqUo6FKnpLKKwyUl5Jws4GRZOUM7tufKNikIqbN5335e+mAh2YeMrp/u3buzdOnSn1SgqIuhJg9kTU0NN954I19++SWKELx4/73c1r8fQvGOVRtj2MaYtA7k5hew/cRJDhcVU1pZhSKMrse4yAgyEhPp2iqZrq2TcQnh47Sr6Rqzli3nlX99jC4lmZmZrFq1KtTqdqhJAyml5JlnnuGFF14A4Ln/HM3oqwfhkTrL9x7glm5dfdzLvNbSW1TrgKppuBTFBhBHh7jRD2nsMfsmv/wuh8ffegdPTQ1du3Zl7dq1xMfHN+A3ETxq0o2a7Oxs/vSnPwEwevBA7ho8EBTBir0HSImP94VRMT17TP9GxaWguF243S4iI8IJC3N7pze4TMuquOz3Cpdi+1Ne26M7rz00DpeisHPnTh5++OFQQ8dUkwVSSsn48eNRVZW0Fi14atTtCEUh/2w5J8rO0qdtmuHTaDrcolhOuQ7PcKF4gbOKd0Wxr7EAtB15zbqoEArX/Oxynrj1FgDmzZvHv/71rwb+RoJDTRbIb7/9lhUrVgDwxG23EB0RgVAEK/YdZHiXLBRFQTG9xC2rKGyHWwUU4fUgtyynZUmFaVldCrgMf0lFCHSB4x6CsTcMpXeH9gBMmDCBmpqahvxKgkJNEkgpJW+++SYAl7VK5sZeV4AiOHm2HFXXyUhMMItoAy7FtG5WEY5PMWw2eBTFbzOtpXk9iot312/Eo+kmtAJFUZj4i1EIYO/evQHDNzc1NUkga2pqWLx4MQB3XDXA9gpff+QYV12W6SiCTeiE0/L5NnK8RbYwYTX3Ds9xq/7YNjGRvYWFZqPIaL13a5vOoG5dAJg1a1aTr0s2SSA3bdpEcXExANf37AFCoOqSw8UlZCUn2R3ePlMXhBM0pwe5/zVKrWutLat1K3YXnPK5HiG446oBAKxevZpTp0415FfT4GqyQAIkxTejbXISQsD+omLat0xEsSb/OyydE0JfWBV7s+baALWutQDNaJFIXskZo7PNDDAgBAzu1pUwlwtN05r8BLAmCeSePXsA6JiSgmICs+90EZ18rKOjv9HRMe4PozWKI7DgdMDoABohcLtcxEZGUlplBKKy0mMjI+mUmgrA1q1bG+prCQo1SSDz8/MBw0JaOlJ8hoyE5rblMiSMP2HsnUUwQiDNyV0CkMLbeq5V5FtXCWibkMDRkhKzX907Dp7ZOhmAgwcP/gjfQPCqSQJpyaW4QIAuJTW6RlRYuFmaemcPOjcvPkaCggGiFOYxUOsrFc69ILV5PMfPlHmtKIAQJMbGAt4Zj01VTRJIRTGybbiFCco8HppFRvpMEfSHz1dekOwUeyqsv4R3mqyA1s2akX+2rNa93OZn0jTth2foJ6SmDaSuA5IyTzXNIiLMGI9+s12l95W3Q0ba5+wi2+6uqT0h1pi5aBy2iImmqLzC+Q+MXciLHGjqQEodJHhUjQi325rQigWRBagV+9Er47wO9rRXHXzgxTznO6db4lIEuvkeG+Im3vfoVJME0qq7WZ7cupSGgbLAc867tuHBTjfO6QgHSMJMc87DNrj13ss6F+5yUa1p+FrTEJTQRAMFWK52ujl32q0IVM0ovq1AAEgMP0bFem1A6RulQsOqOVrWTjqBtjackEqiwsKorK4mLDzMvjZUYBtqkhbS7TZ+h6qqApIot5uK6mo/mHQbJimt+djS55pAGz573Wtxde+5iDA3VTWqDbm3bhBSk7SQ1rSBfSdPInVJXHgEZ6qqDOAEoOsIoRhOtUIgFB10BalIhA5Sqd3utuqBUko/cJ0OukZ6mFBQNePH4LWiIUETtZBW5IhDBaf4evsOIt0KlTWqHaHCsGia6eGt2xZS1opQIdGtyBW2d7jfJh3e4uY9gFpxgGTIRAJNFMgBAwbQv39/AP73/X+y4/ARYsPc5J85Y1g308JJ3Rk2RfpA5QOmY0OzoDaB08x7mBu6NBpRYEzEMVv6IRlqkkW2oii8++67XHXVVRSXlPCLP03F5XLxRngYy/7wLEnNE8ERB9xuyEivw4UUwnhtXmNFQLP7Ha1iW3fG+DHSajQVt1C81liG6pCWmqSFBOjcuTMrV64kIyPDGDpUVUorKvls01bQNbPeZxXDGmgGVLrTGlpBpaTDCmrmNbpuvscBo66DrlFVoxLhUnxa3k3dD9JSkwVSCEGvXr3YtWsXy5Yt4wYzKP2LHy7g+bnzyDtV4FMsG8GlVAMyv7g+RpQKbzqa5gejbsOI1KmsqSHK5bIbP9VqDat3GmGeExMTG/JraXA16WmwTp08eZJrrrmG3bt3A+BSFIb27MHoa4YwsFsXI364n9Mt4B3yc7Syfbp/7BB+mlkvlby2biOP9bnCbtg898ECPlizDiEEa9euteu3TVFNsg4ZSK1atWLTpk1Mnz6dV155hYKCApZv2cryLVtpldCcEb17M6xXT3p17ECYMySzH5B236JPf6a3yC4pL0f1VCGlpKLKwx/mf8TibzcC8Nvf/pZ+/fr9+JkPIv1kLOTZs2f5/PPP2bBhAwcOHKCsrIzIyEjS0tK44ooruP7662nTpg3gHTqsS5WVlcyZM4c33nij1poyMZGRXNmxA1d0aM/lGRl0bNOG1okJRpAAvCM15lCPbRV35x1jyYZv+fCbtVR4PNzQ82ds2X/QaNkDo0eP5v3337c77ZuqGjWQUkoOHz7MSy+9xOzZs6moqKjzWkVRGDZsGBMnTuTqq68+5xiN27dvZ+7cuSxatKjO5TwiwsJonZBAy/hmxEdHExUejtvlQtU0TpeWsvf4CU6XlQV8b1hYGE8//TS///3vG+UzuNhqlEBa9bRXXnmFp59+msrKSsCArl1GJ9LTMomNjsVT7eFk/jH2HMilqqrSfv8999zD66+/TvPmzX/Q/zx48CArV65k9erVbNiwgX379v2gZeLatGnDfffdR2xsLFu2bCE9PZ1HHnmETp06nXvmf+JqlEBWV1czduxY5syZA0B8swRG3XIPw4bcTEJ8ou2dbXXueTwe1m9azYeL/87+Q8Z8mi5durBs2bILCvRUVlbG3r172b9/P0ePHiU/P5+SkhIqKirQNA2Xy0ViYiKdOnWif//+9OzZs1F9zw2hRgeklJL77ruP2bNnAzB4wDAee/Ap4uKamRP6feuIluuYlBJVVVm0dB5/mzMDTdPo2LEja9asISkp6aJ9Nkv+n+F8wjhLKTl27BjLly9ny5Yt5OXl4fF4iI2NpV27dvTr149hw4YRFxd3XvcPRjUqIKWUvP766zz22GMA3D7yPxn3/x7D5TIiRCj2BH7A4RZmNSx0XaJrOus3f8Mfp/4vqlrDiBEjWLp0aVA9UCklq1ev5oUXXuDzzz+vt1oQFRXF3XffzcSJE2nXrl1Q5eN81KiAPH78OJ06daK8vJyBfa/l90+8iMvlMoB0mVNT7emq2M40mOPSuq6jaQaUy1b+i1fffBEwgj394he/CIqHeebMGf77v/+b999/306Ljo6mR48etG3bloiICM6ePcvevXvJzc01XeggIiKC5557jieffLJRPMu61KiAfOKJJ3j55ZeJjYnj7Vfnk9A8EZdLweWzTLDVce1bXFv9gLpmQKlpGr//4+Nsyd5A165dycnJsac2NJTy8vIYMWIE27dvB4x67q9+9SuGDRtGZGRkrWpAUVERixYt4o033qCwsBCAUaNGMXv2bCIiIhokDxeqRgNkTU0NqampFBYWMvr2sYwZ/TAut2JaRxfCJXzqkMLRL6jrVpFtDANqmo6qauzYlc0TzzwIwJo1a7jqqqsaLH9FRUUMHDiQXbt24XK5GD9+POPGjbPXRbR+LEKIWk7BpaWlTJo0yY5XdOeddzJv3rwG/4GdjxrNJ964caNtBYYOHuG1hI61qY1NsTcLTMWxhrUVgUJRFLp06k5KqzQAli1b1mB5k1LywAMPsGvXLtxuNzNnzuShhx4iLCzMrJK4UBTFPvbf4uPjefnll3nkkUcAmD9/PtOmTWuUDhuNBkgrxEjz+ETapLZ1BHHyXc/auVmA2lAKY91qA2bD2nTr3NO+f0M8QCklixYtsgOWTpo0iRtuuKFOAP3TrR+fZVV//vOf2/c5cuTIj56fC1WjAfLYsWMAtE5OteuIVtQTZzHt3fDZg3W9sKNTCAGtk1Ps+zdUo+b5558HoF+/ftx77702YE7YAkHov7lcLp5//nkSEhKoqKhgypQpjc5KNgogrT5EALc7rN5rbVBrpTkiUNgXCMLM+9XU1DTIw9uyZQvfffcdAI8//rhPdcP/2JkWaBNC0Lx5c8aMGQPA7Nmz8Xg8P3qeLkSNAkiAhIQEAM6UFmPMBKw1B9+nVY2dhiOt9lzpktISwNcPsaQE/u//wFxS5pJJSmnXXVNSUujfv7+juqHUOq4PSmfpcNttt5n5KLEXgmosahRACiHIysoC4PjJPCoqKrw+h7oFoe7T8rTmXPtsunPetAHq/kOG/2NWVpZdZL/yCvzud/Dcc5c+b1bduE+fPnXUg+uuI9e1paWl2YvEN7bwfo0CSIBBgwbhcrnQNJWNW9f69THq9rExC1A6jnWfNCesZ0pL2LnLKC6vvvpq+3+NHg3Dh8N//Melz5dVN05PTw8IFwSqH3//ubS0NJ/7NxY1GiCTkpK49tprAVj8yTxjGNCeHiDRNWmn+YPo0w9pTk3Vdcm/ly9E1VSio6Pt1ilA586wbBnceuulz5e18kJYWP1140CqrxEWHh7uc//GokYDpBCC3/72twDs2rudz7/6xIZNd0zA0jUDTs0+1u1N2qM0kpP5x1iwxBiee+CBBxpkJS0hhF03LioqqlXFsOSfFjBihp+sOJONbY5OowGyurqaHTt22CNK73/4pg2eMT6t+cCnq7rva00zINV1ysvL+OPLv6OqqpIWLVowadKkBunykVLadeMdO3b4pF/IVllZyYEDBwDs+zcWBT2QUkqys7Pp3bs348ePR9M03O4w0tPTOZi3x4ZSVXU0VUez1rPWNDRrZqBtGY1hw/fmvsH+g0Zjpn///g02bCqEsBd037ZtGwUFBX4NM70WbIHS/NO/+uorqqurEUIwaNCgBsnb+SqogZRS8uGHH9K/f39ycnIQQnD9kJG8PW0+Tzw8mU05X7MpZzVqjWpCp9nQWYCqqjFubcApOXr8ACXlBbhdxtyVpUuX0rlzZ+bOndsg/ZAjRowgLi4OTdP4+9//boPl3Du3QGn+6X/7298AGDx4sD2PqLEoaJ0rpJTMmjXLXpiyRWIST/zqWX7W9Up7lMVTU8m6LSs5VXSCbh17c1l6Z6Iiosx44Ib/mQR0TedY/mF27ttMZVU5A3vfiIswFi+bx8efzsdTXQXAuHHjmDFjht0g+LHyOX78eKZOnUpkZCRLly6lffv2PqM1/i1r632B4Fy8eDG/+c1vAFi8eDH/8WN0FVxEBSWQUkoWLlzIXXfdha7rdLisM5Oe/AuJCS1Nhwrf4cJTRSfYsWczh4/tJzYmnvjYBMLDI9E0jbMVZyg+c4rE+JZ07tCTdumdActjBk7mH+fVt14ge8dmAG688UYWLVpEVFTUj5LP/Px8nnzySf75z38ChvvYn//851qd3vV5+1gw7tixg7vuuouzZ88ydOhQVqxYERQ+nj9EQTnnMjc3lzFjxqDrOu0yO/HHia8RGxPH8YLDpKVkGt49DqvROqkNKclt0HWdwuJ8zpQVU13jweVyExsdR1JiayLCI42+SjPYk3Wc0iqVP058jffmzuSjf/+Tzz77jNGjR/PRRx9d0h+plJJ58+bx6KOPUlRUBBgtYo/HQ35+Pq1atbKvUxTFrk7UBaSUkscee4yzZ88CRnGtqup5dSc1pFzA5EmTJgWN75yqqowcOZLDhw/TPD6Rl56eQfP4RE4VneC73LVkteuOIpzuZgLFJVCE4RcZG9uMpMTWJCe1IalFCvFxCcZDMb3IhT2cbR2AIhR6Xt4XIRRydm5h9+7d6LrOtddee0ksjKqqPPHEE0yYMIHKykpiY2P5zW9+w7Rp08jIyGDOnDk0a9bMB8q6GjCGF7yxAti6devs7p5Vq1axZMkS+vbtS+vWrRuNpQy6Ivutt97ioYceAmDyhJe5socxvrt01RyG9BtBQnxL7/wZq16lOBc28ruhNGuSzuFFc7jR27kuzch4klffepEVqz5GURTWrFlz0cOaqKrKfffdx9y5cwHo27cvU6ZMITU11c7PiRMnmD9/Pm63m0GDBtG5c2e7Xuu0kFVVVWRnZ7N69WpatWrFrbfeSl5eHjNmzOCTTz4BjKkNr732Gg8++GCjgDKogPR4PHTo0IG8vDwG9r2W/338BYQQ7D+6k+IzpxjQ6zqzXoXp0+i/cha1Q9vaKylIB4ze4Ubv6I4x1l1VVcnjvx9D3vHD9OrVi40bN1600kNKya9//Wv++te/AnDXXXcxefJkwsLCAg4L5uTksG7dOo4cOULr1q1JSDCsvcfjobCwkKKiIrKyshg8eDAZGRk+VnT9+vVMmDDBHjqcPHlyg/W3/hAFFZDz5s3j7rvvRgjBjD/9k7Zpl4GAJSvf56ZrfkFMdIzXMiqKY/6MVRzXtpDSmuQFXhgtMHWd73I30jHzctyuMIyoepJtOd/y9EuPA7Bo0SJuvUhjiO+88w7jxo0D4O677+a5555DSsmhQ4fo2LFjwBa1EIKqqiry8vIoLi5GVVXCw8Np2bIlbdq0sZ9boOK8pKSERx99lHXr1gEwdepU/ud//ieooQyOiiPGF2rNte7RrTfpbTIRQnD0xH5at2xDdFSM92E5YVSMVrezCPdtnTo8xP2KeqEIqqurOHr8gA2zEIIel/fh8s5XADB9+vSL0j956NAhuztm4MCBPPvssyiKwtdff83hw4cDevVY+YiJiSErK4v+/fszaNAg+vbtS7t27QgPD6/1Pn/fyLfffpvBgwcDMH78eFauXHnBebmUChogq6qq7C/r6gHX2+l7DubQpUNPr/UTvkA5u398YKvDdct4vxfojLQOHDmxH2NlV++9br7+dsBoHJw4ceKC8ialZMKECZw9e5aEhASmTJmC2+2mpKSE7du3M3ToUB+YAvk6nktaIB/KyMhIXn/9dbKystB1nTFjxnDGDHAVjAoaIDdv3kxVldFB3bO74RtYXeOhsqqcxOZJPuDhqDPW7RcYaGoDjn5M44LklimcLi6wzyGMKBN9rhhIeFgEuq6zYsWKC8pbdnY2CxYsAIyQey1bGv2py5cvZ/jw4bjd7low1ectXtePra70mJgYXnnlFcLDwzl27Bh/+MMfLvh5XSoFDZCWc0F8XHNaJiYjBBwvOERaymUBrKPVfVP/PJrax446puMBNm+WwJmyIp/zERGRZHXoBmDXwc5XVrGflpbGqFGjEEJQWFhIcXExXbp0qReoQADWZzWt7bPPPvN53bFjR/7rv/4LgJkzZ9pLNAebggbIvLw8AJKTUgxLheDkqTxSk9NtSITVig5oAWvDaL4rsAU1z4GgVVIa+YVeR1brmsy27QHYtWvXeeerqqqK+fPnA0ZDxppnvWbNGoYMGRIQtHOxevWlKYrCvn37KCsr8/kuxo0bR0xMDJWVlbz99tvnnadLqaAB0pqMFBnhHbI7XZJPy8TWWFBhLagOjjRL3lapneKweHaRjP9sRUhukUJhUb5tha3ZOi0SjUXVL8SafPPNN5SWlgJw8803I4RAVVX2799Pt27d6qlyXNjWtWtXdu/e7ZMWHx9vOyLPmTOnQZxJvk9BA6TPCq2matRqIsIjvcUsWEbNJ82nKPaT91zgCySCFs2TKDpzqta58DCjM9qq256P1qxZA0BmZiapqakA7Nmzh6ysLLvL5lIAmZWVxZ49e3y+BzC8iwB27tzJ0aNHzztfl0pBA6T1hVmRvmrUasLcXq8b6b93/LjP7Zde9zWRkdFUVVXgD631mS7Eklh1Y6c13LVrF926dbP/h7NYPVfg6rsWIC0tjePHj/vkA+DKK6+0x7eDcUZi0ABpWUhpWsjq6ioiwiPNNCd9WEMvPu+vixnvZLC6wDJW1XK53ahqjXmji9dxbNWN09LSbDCOHDlCRkZGQMCsvW89ODC4znP+11khVkpKSnzSIyIiyMzMBLBXnAgmBR2Q1hrWmq6huFxeiCyq7NVZ/eea1E7zAlh7foo3VJ+RHhMVR3nlWfv6i1W/surG0dHR9uuwsLBaXjiBQLNeB0rzPxcI4PT09IAROSynjZMnT15Q3i6Fgg5Ia4xZCGEc45js7weKzSj4wRjotXOSlHd+tjXGHRURTWVVhc89L4b8qyKFhYV1Ruz1ByfQ+brADXSf1NTUWp36lpUEgjKqRdAAaVXwNV0DJG53ONU11V6nCMuaBbCCvlt9YNYNbHh4BNXVVRjrExu6GGB6F4s3gCwpKbFnGvrrXKzyD7HcycnJFBQU1EoPFlfDQAoaB13rIZWUGNNBw90ReKqraoFjhJ9QELoAxbCa5rLWAVvaXqvojV7hINK+r8vlpkat8bn2YsjfQlZWVv5gb3QpjdEj39Kh9ufzz2tiYqLt/Fvf+4JJQfNT6dOnDwBFJYXs2rvdTtc1pzOq5aUj0a3VsWyovAEAaju0Stu9zOuCpuO1lhJFKLWs6MWQXTc2vXBUVfVZHMm/vlvfsfM9/u8NdF1UVBRVVVUX9Qd2qRU0QPbt25euXbsCMPPdP3O2vIz42ASKS087rKTDnUwaUNrrW5uuY1J6o1XYIDofnO7d+4RXkRKk8H14F+EZOoG0XmuaVguSusA6F2semG8AAAW5SURBVFjP5ZxzH8wKGiAVReG1115DURQO5x3gyWcfZNXXX/Damy9SVlYawNpJezF0X8jwW1pY+r6W3nAq3vvpaKpqz12xfwAXgUgLSE3TAMOD22m16rJydb0+F4vqTDPiIWmNBsqgARLguuuuY9asWbjdbo6fPMqmrevZuHUdq9evROrCMf/Ygk+3IdNt+HwtpPc652vHZgJYrVbjcoX5WeILz5MVyuTUqVNIKYmNjaXMXGau/sbZ9291BQ1wwud2u+34PsEOIwQZkEIIxo4dyzfffMP9999vr7I1Z+G7bMnegK7jA6WxBLURy0dq0gdK6XPsTatVnJvFvcdTRbg7wqdKUFBodJlciDe9VTf++uuvqaiooEWLFjacUBvK+iCrD8y63uesIlj/L5gVVECCAWW/fv147733WLJkCTExMRQVn+LpFx/j8Ylj+OLrT6nyVPlFN9Nta6lrWu3IDpoTRN9oD1ZDp6LqLJER0faDPHBoD598vhDADgB6Prr33nsJDw+nuLiY559/npiYGEpLS88JMP+oFIHg8wfR//q66pXBqqAD0qnu3buzatUqe+bfvgO7+Mvrk/l/D/+cGe/8he2521A11c/qea2mN0SftKOeaZrXKkrT4uq6TpWnkvCwKKQOB4/s5YVpE6hRa0hPT+fpp58+7zy0bduWp556CoCPPvqIMWPG8OWXX/Liiy/WCVNdVrM+EOtKs+ZLBSrSg1FB0w8ZSEIIevfuzdq1a/niiy+YNm0ay5Yto7TsDB9/uoCPP11A8/hEruzRjx6X96Zb5x60SUn3OkWA3bstpXe4UDr6NvMLjvOvTz9gc/ZaWsS25fDRfXz079lU11QTFxfHwoULf9CqsYHy8Oyzz3Ls2DHeffdd1q9fDxjBEO655x4yMzPRdd2nNR7IYSIQROdStwyWCXznqqCadfh9ktKYofePf/yDuXPnBnQOiImOJSP9MtqktCU5KYXE5i2Ii40nIiIKt8uNrmucKS3hyLFD5OzczK692wM+7DZt2vDRRx/Rt2/fi/bZP/jgAxYsWMDy5cspKyujT58+vPDCC3To0MEGz+l4C4HHsp33/L6if9q0aTz++OM+aXfccQe5ubn88pe/5M0337wo+btYalRAOiWlZMeOHSxdupQVK1awfv16ysvLz+teLVu2JC0tjW3bthEbG8vYsWOZPHnyJQv2OWvWLH75y18CRrfQ0KFDGTNmDAMGDKhzKqxz799AqQtGVVWZOXMmv/71r+30999/nxdfNNZ4XLZsGcOHD78keTxfNVognbKKppycHLZu3Upubi779u3jyJEj9hrWHo/HLg5jYmJo164dffv2ZcSIEYwYMYKIiAgqKiqIiIjA5XJ9r6PDhX7euXPnMnHiRA4fPmynZ2ZmcttttzFy5Ejat28f0IPHer//PtBWVFTExx9/zL333ouUxgJNzzzzDJqmcfvtt7NgwYJLms/z0U8CyPpkPTRVVdE0DSGET1iShpTH42HevHm8+uqrtVZLaNeuHVdffTX9+/enV69eJCcnB3QYDtT3KKVk06ZNvPnmm5SVlfHwww+zePFili5dChiNxa+++qpOJ4+G1E8eyMYgKSUbN27kvffeY+HChQE9dJKSkujUqRMZGRmkpqbSsmVLmjVrZq8Sq6oqBQUF5Obmsnr1ah/L69SQIUNYsGABLVu2vNTZOi+FgAwiSWksm7x27Vo++eQTvvjiC7Zu3WqvYvZD1a1bN8rKyjhy5Ajp6ek89dRTPPTQQz7OHcGmEJBBLCkl5eXl9vJzu3fv5sCBAxw9epRTp05RWlpq143dbjcJCQl07tyZgQMHcsstt9j9txUVFbbHekNXU75PISAbmfzrj5o5MmUtzAnBD119Cl7bHVJA+be6g9n7+3z008pNSI1eISBDCiqFgAwpqBQCMqSgUgjIkIJKTQ7IYPYF/KnI6Uj8Q/X/AVbH6iQZEuExAAAAAElFTkSuQmCC;clipPath=inset(3.28% 19.51% 4.1% 19.51%);" parent="1" vertex="1">
          <mxGeometry x="-3009" y="-4583.999999999999" width="70.8" height="80" as="geometry" />
        </mxCell>
        <mxCell id="5GXkYhnuSkyJWKg_0dOM-16" value="IOT&lt;br&gt;Devices" style="text;html=1;align=center;verticalAlign=middle;resizable=0;points=[];autosize=1;strokeColor=none;fillColor=none;" parent="1" vertex="1">
          <mxGeometry x="-3006" y="-4496.999999999999" width="63" height="42" as="geometry" />
        </mxCell>
        <mxCell id="5GXkYhnuSkyJWKg_0dOM-23" value="" style="shape=image;verticalLabelPosition=bottom;labelBackgroundColor=default;verticalAlign=top;aspect=fixed;imageAspect=0;image=data:image/png,iVBORw0KGgoAAAANSUhEUgAAAVQAAAEtCAYAAABXv5i8AAAgAElEQVR4nOy9aawlSXbf9zsRkXnv219Vvdp7ne7pZZqaGc1wuFvUSJBMiaRsgzJgQvACf7NhCPZHwYC/eoEt2ZBlARJkWpYtS4IsgQApk5KohcuIHI44mn3vnl6ql6qu9W333ow4xx8i865vqap+Pd2vO37dWe+9u0TGzZv5zxPnnDghZmYUCoVC4R3j3usOFAqFwgeFIqiFQqFwQhRBLRQKhROiCGqhUCicEEVQC4VC4YQoglooFAonRBHUQqFQOCGKoBYKhcIJUQS1UCgUTogiqIVCoXBCFEEtFAqFE6IIaqFQKJwQRVALhULhhCiCWigUCidEEdRCoVA4IYqgFgqFwglRBLVQKBROiCKohUKhcEIUQS0UCoUToghqoVAonBBFUAuFQuGEKIJaKBQKJ0QR1EKhUDghiqAWCoXCCVEEtVAoFE6IIqiFQqFwQhRBLRQKhROiCGqhUCicEEVQC4VC4YQoglooFAonRBHUQqFQOCGKoBYKhcIJUQS1UCgUTogiqIVCoXBCFEEtFAqFE6IIaqFQKJwQRVALhULhhCiCWigUCidEEdRCoVA4IYqgFgqFwglRBLVQKBROiCKohUKhcEIUQS0UCoUToghqoVAonBBFUAuFQuGEKIJaKBQKJ0QR1EKhUDghiqAWCoXCCVEEtVAoFE6IIqiFQqFwQhRBLRQKhROiCGqhUCicEEVQC4VC4YQoglooFAonRBHUQqFQOCGKoBYKhcIJEd7rDhROI4ZhYIKIgE09JeOXzL5DdOq9IAgydT83dOrNMtNUoXBaEDOz419WKEyjMCOGBq1MTmQwC6iMldXPtNA9Ktb9A5hMnpxuqlA4JRRBLTww3SkjIu3fgEyLo0xEkWx9ypx3yegs1myrdgaqSbZ+pXu8UDhFFEEtvHPaU8gQokKTjEaFmJSUBFVF6YQ4K21FwDujqqBXC8EnRBxubLoWMS2cPoqgFg5gyrwc/z5WOjAjmTCKxt5+5Pao4t5uZHdfSVZjAqoNKRlJPWqgpmhKJFNMjZElUDAFjUrPK5vrPS6cCZxbFTaXA/3a4f1iT47qZaHwXlIEtTCLkYffHpQh0ENQxCAmx+29yOv3hNeu3WOYeriqwksihID3QuUdiJDUSJrQBJgRTVGFZEpKlq1WNdQgacIMYgLUSGlAUqFXO559dI2PnA9srTmqYJg5cJ0zoPMTALiiqIX3nCKohQWUBofDokd84t6O48uvDfjWG7sgjuA8dYDgIbiaygn+nQpqTKjzNBHUEk4bNDqiBiJDcCOevXqOTz2xxIUNB84Qc+g4BhZxriStFN5biqAWFlFDnfDll+7wxe9tszOsqX3EI4SwTF1FvO8hLuC9UQdH8O9MUJ3BICbUJL9HhFEaZP9sqomNYE4ZaWS9GvCpZy7yqY8uUXnFIWDFQi289xRBLcwQE3z+6zf4wnf3GWlF7SKEmip4ggfvyb+7muA8VTC8l3c85MccMaVsrSby+82yC8AUbdtKRm5HjV6o+Phjjp/4xBYrPUPmUrMKhR80RVA/dOQcUk3gHERJBPWYJH7na3f5wrfusD2EOjic84TKUTmPD47ghBAclXc456iqCu+gDh7vBe89IXhEcqTfzEjJwIxG89+qRkqKpYiaYQpJIapiZkSdiG1Sa4NZZPEdi2sWZhSGaqzX8PEn+vyxz5yjsjzsV4kILqdemWHiwEryQOHdpTidPmQoDpcUvEOBoJ5vXNvh1z9/i5s7A0SMuqrHr7+f+61ieKRtXRAMj+ZsKjMUQyznlpopgmJkgUuiJDloH9OZBQdjBl6Ue/vC73xtwFe+fY2f/MwGn3lmk2Ahv90BIohC/qfMti68exRB/ZDhiDQuUDHi9m7gV37vDb72nbtQGd5VVK4HGGY5cf9+kutl6jdrpzhl2YQkbZq+RNQ0S6S1M6hEcWoYSlrYz30IuSiSPE4iSRJvN4F/8Ftv8MVv7PDv/ZHzXN7oARHDYy4LdJHTwrtJGfJ/yMj5mspXXtrj7/6zF9keQeUrvDjqnuGpCZUQnOCDx3tH7Y8b8ufXisubAU1UYjJGKYtzHtLnobsZmClYlt88pk/ZRaBGus8hvyVQM5KO0FSRGBGTA1F8E/nZn7jEZ144S19y3QFzqfhZC+8qRVA/4LRlTHBJwENqIn/nd6/z2//6ek57ChXOO2rvcF4I3lF5IYQqC6h3uCDU7d++EmoXEAeEmn0T7sWKYWPsNTBIjlFSzBlewIlDxMazqToigmlnCTsqMSoiy5LoE6md4Sxi2rSCKiRLmObZV6n1x3Yi22ieKJCSts8pap5PPLrML3z2EhtLHhsXcjFEImZV8akWTpQiqB90FFTAkbi5k/hrv/wi37q2S91zLHmHeMGHak5QHaG1ToMP1C7g6oT4ANTcUs+9JrCfHD1nXFlu2Fh2rC8pa3VkpYJaQLo5/6Y0jplpTZUpSmCEZ6+BnZHn3lC5OQi8uefZGSo9YMUaVmSfSkaY1mgcoTYiacAskjQHtqwxGrEZQZXoadyIraUe/9HPXuHJrRVM8vRXTQ7vI8XrVThJiqB+wDEUUeGVO3v8xb/1Te4OwHxipapwzvC+jw8yFtQsoo5eIFunvsKCcdfOcjfWmCQePQOPriYuLg/p14GRKaiBOcS6qLoiJmMLMM75RFU8DsVZyv5UU8z3AEdPEqNovDWseHHb8coNh2mPZbfDht2jSpFGGyQFoinRstVqpjOCmkxJ0YEElmzAn/v5p/jkY8uIjlAfcMWjWjhhiqB+wEkG33l9j//ub32NUYr0akBhebmPkxonkVDVUxaq0PNgVY+BW2Hg+tyzFT66sc/zF2C1P8IbjNThxFGnAYbDnEMxVNpkJdVxNT7MtSGqCVESIJjzbUpTD5/2qImoBBoRKhO8OtQ37KYh371xhi+81QMaLjAkpLuEFEEjI10UVEEZNh4vQ1LTJ7p9fvGPPcEffWETkzIPoHDyFEH9gBENghnJKR7lD17c43/+219DxSMiuBConFIHlxPyfY34mr5XvHO4HkS/xpu9iyxXDX/kypCtvuK9tJYkmOVafSKGkUjWm4iTKZIlFm2roebY+qygdhlNkINkpg7npJ1KqnnOfpuK5RFQxXlhhHIj1nz1+45r+4HNZpeldBfTRDJDUmTfKpwmSLENcuXprKpGwvNnf/ICP/OZsxgO6Qpem8PESsnAwjuiCOoHDYXGKZXCF797j//p//k6uzj6LlK5Pj5oO+/eE7wQglFJTV05BvUaO0uX2VoZ8ONXYKMe4axB2zny3ZkilqVwfOJYgxOfq0y1qVPWFUht06Lmgz+TmvyuldqI6/6z/EHUdVVTXbtfwZuADDAq3k6Bb7xW8d07NWvpJiuDWzldS62dTaV56K+52lX+O5I08B/8W+f5t3/kIghEdfj2BlHyVAvvhCKoHzDMhgg9vvHyNv/N//EHNAohGLX0cM5TeYfUjr5A5cH5mri8wt7yVS6sJn7kyoj1nmX/aRoxdEsEizP7UOlkzuWp9mRBCgK1N+rK0wtCHXw748oxnVdqZjTRMYrKqEkMR5FRylH8ZJonAuCyBSnZXeAsYRaIYogHMU/QRHTGvaHx+dfXefW2shLvsD54i2SOaA5LaSKoCRKKxYjS4z/+U1f47A9twtg94cZFswuFh6EI6gcMU3jj1j7/5f/6BXZHRs8Fgvd5Dn4PHBVSRZYQrL/BaO0cS0sbfOqREU9tNCABLAKGicdZQ+pyN9tTRc0TUCpvrC31WFv21JWn9kJw1s5xam1Qa1O35nTKJE6q8ouQDEYRhtGxsxfZ3R8ybBJR3ZR7AYSEwyHq2hlWgncRJfDGXo/fekXZ2xmxNryFjyM0TSzUqIpEpTEh2S7GJn/+F57iM095sJDbL3paeAcUQT3ldMuFtGvmsZ+M//y//V1ubO/gXMBX4EMv+02dx4WKyhu2fB5b3+KjF+DjV2HVxVxd1MhJ8JKDPIgHS3Qy2as9W0vC6nKfpV7AkaZyTKdDT22tUsntCTbXbz/2ydKmWOU00fxTTRhEuLcfubPfsLPfYNpOHDADF3EGHiFaLufnFRovfPH1mm+8rtTDW1SDbUSNpBHVRIPLxQM0MNRIv1b+wp97hqcurmKqiJtaK8sUkeICKNw/RVBPM6bt7HlIAiEN+Qt/9Uv8/su3qaSHD0rlA30BQh/nPb2QaLauUm1e5Kev7vH4Gcu5ql3OKHmVp2SCOIdqxDvH+pLn/Gpgve9zVRXLxU6Qeal8OBYNQ2k9sYpJYG+k3N3e560dpVHwJMCNBdgMnDQkXaKqBryyu8LvvNRj7+5NlgY38AliTDTkDACfoLFcvurS+T7/9S8+w/pqPeNBPWgtrELhKIqgnmoM03ZKZRL+3r94hb/6y19H6j5LXvGuwlVGCDWVCL3a01x4hotn1vlTH92mdg611q6UPL1TRFDJPk+vDefW+1xc67FUS56lJAHI6z9hdiJiejiCtBawSDsfP0Zu7CRev5eITcJEEDOcGGo1uBE+OsQr++b43KsV331T2dh9DUl7NOpIKmhSSKkd/nt+8vkl/os/8zQutAE3s+JPLTwwRVBPMQq4dtT83Wv3+E/+h8/Rd0rwfZxXgg9UIeCd4JbX8Bef5OlLwmef3CPaKj4NkBzyAcC11qagbC4JV7bWqH3OZRVsvKppN4A/vh7Uw9N6CtCueDRKcEZUwbscbHrjbsONu/s05lsTdYjZMuIUS4lAjTjlS9fhc68EVrbfxg/vZCFF0AhYQ0LR6PhPf/ZJ/uSnzrVWbxHTwoNTBPU0YzniPtyL/If/429y64ahrqKuB2BL9KtICB63sk792Mf44SuJH74QSSo4ScRQI1ExS4hzmCr92vP4hTVWK8Usor7CpREqIcfeTWciN++mJWdt1avKAUmJkoNhJqASCNqwZzXXbu1x+94+2BLOjUiqeB9oJBIs4ejxyj3hV1709O/cIOzfznUBkmDeo6OGgQqrYcRf+s8+ztnNlZKNWngoioPoFGNiOHX8X7/xfV57Y5eBNdQhYurwLoJV2PIm/uoP8SefaPjYeSEiqBgNDomRRERxmBpXt5Z59uoyy1VC2yh/nvEU2ozRxQrN76YlJwhOsj83uVy4OonLFrUpI1fRk4Ynz/f5yOUNvB8RzRPxrVHrMK2JGrm8KfzCcw5bOsf+yhn6ONQEiwkTR23G7sjzl/7+N9vAXM5lLRQehCKopxhBeOnabf7Gr79IsArxgThsS9RZRNaX6V19lp97ZsjjZ5S+7ZNU2jqnRhJIJixV8NyjK1zagPAwItIGqN7J9jA4U0wcosrWErzw5DpnVgKYkmLOMshBu4CkhnO9ff7sp8GWLnF3eZkggjcDi6R2ZdevX4v89pdfZyQCLj1UvwofXoqgnmYU/sqvfJfUKJ6cNmQVJBvhly/Sv/Ix/uRHjUdWc7pQlD7O5XWb1IAYubQaePbRFZa8Q2ONhjYNamo7VhBb+/WdbMcK7gGi69opAFECIwn0kvDUZccTF5cxy5NKlQYTcsqVGcsov/jJEbH/GKP+Ko3kmgS0ea4k5X//J29RxQaXPO+el7jwQaQI6inFzPi9b73NP/viq3hVBu28eqxPr+5RP/YMP/2M8sRGIlk2towm5+y7HsmMK1srPHp+Ga/tXHsZQazamfiT7XhBPIlh/zGCiyyIbDSHs0RlI7w2DHzExZrLq4Gnry63y6AIibzMykgc+ETfNfz7nxyxt/IYWi9hKuNSg0bg5r09/va/vIn60Ql9tsKHhSKopwnTtgyeoZr467/yTUQd6gyRqp0av0/vyU/yYx9Rntk0TJUorq2Q70jOQxzxkfMrXN3oIWptEWqHEdp6oe9HFq3gnKHgSQQUT1BPEiMhbPY8z17tU7uQBVMVpw4l4MRztgd/5vl94spFog84EbR1hZgZv/q51zDqNtc3lxdEjeJWLRxFEdTThArBIsmEL33rLl/4+vUsr+ZwmhBTNh59jo9cXeHTWwlSQyL7Cc1oLVXj8cs1W+sOTR/sZUDXas+zV/pUPhC9a5ekFpI5xBKPbno+82TFcOMJGufx4ymyxs5ew9/+p6+AuTx1QhwmOi7lUigcRBHU04QIKhXeEn/tH387W09tEWcDlrYeYf3iVX7mkX0aL5i0NUo1R7KDRJ641GNrdQmX8nTND7LNFSWxGjwfuxLoi6DO8KkhOz8ClpRPPwIfuQhx5Uq2TmWEsxUsRP7R77zKXmMYuThMDvZ9cG9AhXdOEdRTRBIQTbx2N/HFr99ExLczlhr8yiprjz/Dz7+wC05waqjl9CLEYyZcObPEuRWPRUgu5fWc7mPROpvbTgtCntu/VAWevbxMEFBxiGmuNCBC0yT++EeEtTN9mt5ZwOE10aixs2v87tevYeTMAYO22EGhcDBFUN8tbPanzlyHynzB5cn7Dr5gDfAYIo5f+uVvMrJ9EjXeGpAVVp98np9+dJ91LySxbJlaAvM0lri84bi8mQNOuQSUb+fhz+/PpvqXtzy/f7K9Nyz26/i3OMTyjPzl2vHclRUEI2I4DSQdIh68T/zM00KzcQHxPZKPVDia4Pm7v/kKOlBSW0bQ2kG/TvVoYuW3txxL00+2Wx4NFDn+YFNWKHs3MWvTcfJc82lZauuKjIW2c2WaTEovS3edSp6NZJKrOX3+W9dxqU/UIUlg+fJZnj6/yjOPOHS0j3M5UR+EiLG1tMSjFypSdPfhMn1vZfNw3nm/VvueR7Z6vHQ94WyHUVghqIIY5zdqPn15wO/vX6U3eAnnPEHhe687Xr414NxGTTNQhqaIGsEL/bqirj3eubzCK5JXgxU/9QUmoMp9T4b4SWWuwgePIqjvElFy4r1YW69oSk9z3c0cOXZteTg1cG2R++nVQXFM/HYCX/n2Ta7f3cEFwSWHW17l3KMv8NmnRui+IU7apPYs0v0AT16qkAbwlpcvOYb5V7wXs5MFjg2Yzffq2E+mxqNnAtvbys24gk8RawNUichnnuzxrevGYG+TZucWXhKVD/z5v/g5RtJnGCOIUAVPv3IsVY5eFQhBOLsWePzSCo9eWue5q8tcvbzEem04q0AUjYYLPk8gKDWsPrAUQX2XCJpn6pgTdkfw+q0BN27tcPvOgO2dxN39hjvDhp3dfYYjpUlKEx2aEjFFVBWqPr0AZ5YDmys9zp4xPv+lW/i4wiDuIM6xfvlJ/tCFEWtLEbMeqg2Q17o3NZ4636fnIFnIQ9E5Fob875MxqcGh7o8xc4J7nMCaCCTH048sc+e7t4jqcA7U1UgaIU74Y8/U/IOdsyyN7jFoPKaJfb+MaCS4gGmEdkKBkv3alQZ294XvXNvn5RtDfu87gdXQ50wNH3lkjWeeqHn88iq1gccV4/QDTBHU+0bbYfrU1ZAXvM8FQtrl3hqEN9/e4Xs34M72Hre3BwyGyqBJjBqliUocb4kmOprkaGLMj6kRG2gSjHZ2idF4MSpNihAbho2QxBMEZHWdy5cu8iOPRzR6VAycR5LSJOOxsxUbS1Weky4p93FOpB7m2r4fy/A4XV4Qu/toc3EnxwnufEtGdB6vI164usofvDZAybVRTSqMxJUNeOwsvLZ3ARldQzBqA02WC6pgeMtVvtC2lmyVsyhEfC56HY0kI+41nq9f2+al6xUrqzs8cq7HC4+tcuVsly0w2zfauq6l0tXppQjqfZAvWzf9ByaQJM+b391NfP9O5MatPe7sJvYa0NEwr5mkSkyMC23MXkLTcfMDYuhz11WjAbUm67iD1atP84krIyoJDFB6qRVeAiuVcfHM0mQfdoA1euTnvX8exqg97j330+ZxsmNt2cGZVkXBedaWHedXhtzcde1KBdqWDHT85Ecr/ubtdTa3X2Jf6hxQktygjH25c1HHtjfZB97ttX3MlOEIXr2h3Ly7w7n1mievVDxxviI4a78Xnz083aoFxYw9lRRBvQ9ykeM8/RExlMTeyPPm7cSbdwbcHUTSKNFEYRQNs1FOVWotJGkj5e8YJzhnkBS/fIZLW2u8cLlCbUjAER3U4hia8MjWMrWk+/KZTvM+GfGfGNOfR8g+aiX7TZ++tMrdF+8yEo9LCSMgKFvLPT5ybsi13Suw/fYJ9KHCkRCJNOK4PTD2Xx7x1o0+T1xZ4sJZpSLl1WRFipyeYopv/H5Qj4mwj/La3cgXXxzxr769zfdvRPZGefgXPaiLiIC3ql1SpM2dMb1v6/BoYk7kN1i5+CifvKSIyzOgLIGiDFXYqCJnVo7PL4XTm2MKD9N3QVPKxbLFEUS5tFGjURHpFiIURjT80adgO6yczEwyafL3rw6fakIKGBV3E3z79X2+8SLc2fXtOl6piOkpplioY/Jc9y4Kz9R6QnsaeePthtduKLuNIZUQoK0Mn+d+V8lhlkiiJHK0nS4GNB26bwVRulmf7VTH8UVk+a/JkHHym0NwWuErz/L6Os9erkg0eAtEL1SqNOp47MISk3jyu8FDeTwfsM2Tand2D865yQwz57i6tcQbdzVX4BIQHM5FNno9HluN3NpZQtJeu6pBwiYtzXZPJg6csetWJoN3RTCXZ2JFF/AoTg3zPe6lyLffClzZFC5ueipSrkXbnpNlBYHTQxFUwNoEeFzCNA/rHZ5hSrx8y3j5jW1GCSxUiCQqm8olBUBQyZFfzCMSx/qQtdQhjLLrQAwTQ53mfY0FVsbimsXd8kqgbfsgRDHwSv/8I/zQ5SWCj7lmB4ZLEA3WlmClF+gS321BlN65HfqDy6LKB/h+bwuL3TosXJan62JGJXB5s+blt/fyiqeiaMq1UH/0+SX+/r0LrAy+03k4c2q+2DhJWKStyWXgVfAJtLY8qQAIkjA8Ym7sfxXrZqjlyQJiAQRubAvbO0OuXOyx0WsnEYjirAwkTwtFUCEvACcRsYAQUQ28dKfhq6/uM1KHtwrnc+DCe0E1B4UeaB8EnEn2pVkaz2A0EcyBtr6zLkQhAp5c6Ugsuw0qHLs2ol7e4rmLI8wqZgNOxtWtJTAhieIsHDv13Mb/PNinOXkOadPuv3v3Y8Qt2NYqXD3jeO12RbSE02wdKsZjW4FeqEnhDNLcI0lXQtAjeMQEi4KG/P0lgegczmR8b0wKYWr4cdDNYRzmEtjRHt981XhiC7Y2DW+OKbu38D6nCCqgpjgCKnB7L/Bb37vNYCdS+z6+SnTT3QWw6MAHaAtm3Pc+RIliqAjqHGguPJcrxRsimi9ScgVSNSW6mkhOOkcMiQ395XOcXQmsr+SL3lortosQn10OEBvMTXyo95XT+T7jYeYTLX7E2ZDUQYJrXugDW6uO1+/GLsyOE4eTIS9c7fGF5iqVvwwOHDURZVdgT3KKk3PQE6HSfeo05FKEqjIqBwE/XnfLDrs5GIgazmdfu4rwrRvK/sDxxMVcWrHI6emgCCpdZC7x5e/c499cV2pqCIFRGFJpoFKP961t4SIqEfeAh24/9dmJnp1YsZtqRuqIKNE7kiP79LRBu9xGVSBm4Y0NOtrH9raxpS0+9XhF5WjL72XfrWri0uVzSGr7qH0se3NP+nAtcBIFmA6qOXLSHtSD7LyoEcxz6Yzy5h2Htb7N2N6o/uhzI37qmT49SQy9Z9U0+0NxqHhSMqI1NBg7o1XevN7na28Ld29Cvw6c6Q/4+OYeUB3qBzUBDe0aV61vvcJ49baxF5XnHimCelr4UAqqRZAQc5qMJa7vCZ/72m1uDQWHoa7BI3itchRdFFz2egUckkCrGmeKyBBnPqdTmUBq2B4FXt5Z4+bQGEgfiUpdDdhYgcdWlItLynKVMA9eEt4SInlaaF66wxM1z8OPqc/OvuP2nRXe3L3Imzf3Ob/ZQ3Ubk36esmoKLvDocsrLfVAh4wDKMcdiYcy/aMnNW37zz8+LYXY+zE0gmF/c7z46d9x+H5j5XFwBLzkdbr32rPSNnaGg4zG4x8ThfRbR2hKjzqstBkSChyCeZRE2auXKiuPTH/FETewmx6tv9/nCyz0GBudWG374IpwPCqLZNdCqvEsjCDWIkKwBE0yMN28b2D7PP7oEXZhx7G8vvN/40C4jreQQw1deG/GvvrcNZD9nL+Rl3XwQgnN4RxvRN/CCUBEIeGmo3IiReraHge/dVl7arRgkz5pveHw9cXndOFs1OFcT0FY0jUQWB2sj+nlFKMNM28e6ZPwA49xXw3VLHzvDnIOY28IFVmvl04+vkvTBvs4D9HQxjPWAp4i17RzFg1fBO3jI/k6RNqlenPL9m4mXru+1w/M8TJc2HaPLYZ0EyWyhP65znIrDtUvDmE+QKvZ1j+9d7/GVa1mtP/VI4mPnjaWwROg76uDpOYg2wmLN0CIWE9F6aBxyZr3hDz++mk8L1+VvFFV9v/GhFdSkiV//6jYv3Ug4l+epVFk5qYQZQXUieHF4jBAUnLLXVLy4XfHyLYc6x+Ul45mNIRu9SFULkIg4MIdPidgGnbBc081yeIouScq085XZ2Oeplv2gJlnUoihetU1A94hlK7Qx4emtwKNnexynpz+Ir9vaDIhpFizUEylsfXQGw/2lGhntuITdkfCFl7bHbUsnnl0zYm2EftJ2/pk/ixvvL+FE21S3gLSRfsMRzXhrGz7/fWNba378Mc9nLjmWemASGAEuNozMYbFhpJZnuKYej5+NPP2oQyxMVS8rvJ/4UArq7gh++Q9ucn074cVROcM5WgEV/JygigiVz7Usrw+W+f4tYzcKV/rGR7YSZ3ojaqc0+Hah0DYVxgxFUSfjOn0zYtOuGNo9Zl29AFw7PNVxTqoheIxGHKJZSKMEvDYgjk8/tkK/dsicqMz7Nxfm8t9HSs6DDr3toP0sCOpxOz0gIr/wpllRXvDlylxM3Q7YrxlOPEoEPL/94j5NkxfnE8mJTZ21Om6kzVDuHhJnY+HNBq20BazBtWlyohDaFRScCDjj9duOz38/sl8t8XPP9Xn+bGTQBNQSTVJUoTFDohE1MbnY+bYAACAASURBVDL45CN9rp7lwdNMCj8QPiSCakDCLHB3v+H//fx1bg161C7hnMf5NiIrkmtbOiH4nAQenKBm3BjUvHKvJriGp8/C1bXIsk+YJkatLzbbXQ611gLTiXWZEdTAWhHryg13T+dpke2Q39pk8PFHyBdyFynOvjRonNIXz49+dCWvbCqT1PPJL9Nf8eyF2C3Rt3i8ppmbdfVunDILajmnqNL5Lae7MftZ5iUmH4v5G0i3u8n+ukCQiPD11we8drehsoYQAv0qUHnoVY46tMN6yX7MlIyUjEFKxAhNysVtnLjWijXEdeMRwRkkyeeHJ2GqNK7PtTuRf/2a8OyFms8+XSMkmmRoMqKCpkRST9IGTPnR59Y4u2SYtD5Y2t8f7IgX3gU+BIKq+cITuLGd+Du/eZ0dAs45+qHBiafnFOcqXFso2DuoQw4YvTVc4s2dHr1aee78kKv9EZEeYqM2gNRGZztrSfNFrJ34SchTQwEsp0g5kexKcBP/XNZH1wamsgsgGSQ1okGKeWWjzgYVstWropxfCbzw6DJJpRX2CQtWmy0K6oPnob4HHJDgf5wVnGcYHSyoh73nzsDYHiTOLgdqp9RVDjhm96i1XcnW6NhyFWGUlGSOwajh5n5id7dhb6AkC5gJKolEQlQAj4m1EWHFOccoGb99bZnd7RH/zidXudhrGKU8ucRZZBTzWgOjKJzrGz/6/DLBT24qMv6n8F7yIRBUgMjr2/B//os3GLklQor0a0Gc4kONFyW4PJ208oYLym6zxqt7S6xW+zy/lbjYj5CMxvUI1pAsF9lIoohp9pFZXrMop0BFvINKlF7lWe45lvo1dRXwbrLafQ585F46k/FwWdvKRmoQzZFM2RvBzmDE9l7D/ijP2x828PSlHo+fqXKwa+7rtHmL9H7G78ecEovPvvNT6F21r6ast3nf7fiG00YJnRk4n+fUG7Ql+HN5my4oJTBZ32RykzPNwaL9USLhGFFxd3fA23cG7DeOiEdcxFvESRhPDfYozgUciZd3HL/9ovDZp/t87NwITYGRal5oMXlG5kjNPT726CpPX+1nn7tJXphFihvgveYDL6gK3NiBX/pn32c7LdGThjoEgjek8vRMcMFTSx7+D6m5OVxGbcgnLiQurcQsnq4mxUjlYZgiTipImi1TF1BVvBiVKP1exeZan36vyhcLCip5Qb0WQ8di1n0F3RLFnc805fHi2PKoTLPQumz1Rk3c3RP6dWTVB5LvZtYwbnfmy+1SC6Z4uC//3ThljhfUh5bc6eHwjD8UTKYFVvJzmrKoKojTcSBqYszn4iqCI2kiIuwNhvjQB+cQ1Tbin/KaVqFiMEy8dXOfW7uKOo9ZxGH59ZZzkr0oEh3JO37tm8rTZ5f54ccNSS7ny6oxSjEvg60jfvqHzrC5rKi43FYxUd9zPoCCmoh4AhElsDuEv/7r17g+Emqv1MFj3tPzgb5TxEWCOCqEe6xzMzo+feYWV7c20NE+OI+qw6li0pBESOQST+YqTCM9D2eWhbObGzk9Cj20YN/sEPvoC8DmL/658bth0KZiTdqTOd+jdG8+9shN5Pfo6Pl7x0H9uk/bNk/eZyaQJYJMLerVvSK/NgeQAt1stPy6XOQkECPs7Q/o9fqgadZ1cEBOWFfcW9V4+eYeb+8kzHlEDe8cJg5TxXvDacQH+LVvePorS/zMEwlNfUZ2D4k99nBIs8PlrWV+4uk+yTV4q4qevg/4AAqqkRQ8wsDgf/vnr3HtlseHhiWp6IWAlyF1AHyf2kGSipupz2ZP+cyFSKg9OhrgvCfm6sPtMDy0yzYbZg1rtXDx7Aa9qrM0Ux4Sqo0X2xv36iGP8vTXMz98nzze7kAmF+5D7Wvq36NYTHg6iaHmbKv3m2U5LacPWph59mZl48esrS2Vb2i5rJ4ToUnKYDDE+eyDz+6ZsQxPUqnmA2Ftn6xN0XIYe0n47pv32BnldCtnEXE5fKUScAZ9n/j17y1jpvzccw02qNmVEauDxK6D2NT88U96zq71oFio7ws+cIKaE+Dzif5Lv/MWX349EVyi5yscRl1FnO8jzlgORmMr7FnNc+cTH1kbErXLP8zTP7UdzpvkqG7PK5srPTZX83TEnHHq8M66FTGYX4LtoRLjF6LzE0EdW7kyuZiP08HO+py+uPPPNj/2CNxc23rcdWvT1u7BHJcjOk6knzR5wBTXWRE+XNaPkNnpbKjcMSDnmzoHKp7hsGEUc6V/79pcYTOcF1JKOPEzDbopd85iL1rZ14j3gWt3R7xyc4CJJzCVleBzdSofB/zLV2q8C/zMk7ATHYMI3oY0Jjy24fix51fflUkPhQfnAyeonbX261+7yz/6yj2CCD2veOnj64ZggSoYtRMGYRVf1XzignK+GjCSANYAvk1vmiTZB4EzaxWbq0sEZ+1678A4/1Ba/2bXiS7f9IAQTmdMzF8EOv/6I/yhxx6HVjBl3mJ9cGtS5mYLHCuoJ4CbE8GDBfU4JgIlTEr2dX/nV8xbtQqSk/BHTWLUNISQ5+Grai7xR+uKMcYjg2nGN4LO26KG954uUc5hJBNUPF5gOBrwvbeG7IxyTqwn4b3RWMjnU4J//FKPK8vGpy8MiAqjlEdKMSl/+oc3WVsqdf7fD5z6sKDSmoXW5GQlg5fvKP/oq9vtInqWo+Su9YW57GvaDufYWqr4qcsDztbDXAxDI2aSy+aZZh+XJbbWKh6/sMr59SUq0fEyGoYHpBVXaxfsa3M7bcraaMlJ/9MPzG1k3123aRvtV1t0IRxEbmYur7Qt8nGQfh94LzVrS9RNbTntcrz9IMjhvsnWHdOjtu4AdwW8Zz7WjK95cpymj5mIoa5iEJWdwZBGjVDV2fOq2opomymseujIY3ysaAcSzqFq+bu37IMXgUAEjdRVxdNXVljvC2pCdHmRRk8CNbxEfubJfb55O/LSbh9sGSe5Bm7C+N6bg1xPt9v/Aede4QfDqRdUZ4BTjAozRxLjb/zGKzQDQDTnZjrBS0TUYRYZVud5aiPyicsNIaQ2X9Rl0RLH0AIYrITEExfWOL/epxcEM20t17zvzldmrT0l46voYNWRLuWmG6lPiQA2qfhukJdQGb+BA6Pzs6JwGDK3dc3Z+OfMdkALC7q/8AJ759vD7PcQcrBu7vNPrzI63mWXCuVAPMNo7Ow1NNFwrhoLaF4ypevRdGfub9RgtEXF27dOzpv8/YpBJcLTj2xwZjkh6nNN1rbYueEQg59/Rvkn33Hsp1uY1kSviARevj5kPCXEOndKsVbfC069oGJdZmHCGfzfn3uTa9s9vAe1RJAaSYYqpLBEvbzJx7Yanj+3n3MN22G2wjgZH4uc31jisa01lkLWtG5VKOkcrAd15Yira9YynR4T5ot9+vlDLZ/xNv3vtLDajClpbbs6tY2tuQdhXvgXRFje+XaExdma/cd3c2pTs1m9Hjcj2TkqrayJkBR2B032TXqPa2vJTrT+4JtSt1dr93Vfh3LK0h4jhhOoY+Spy6uc6Y2nibQ5zoJ5WPKJP/FU5P97ZY0kEYciSdkewfU7MY/QZDFkWPjBceoFVaULYHiu7Tf8828awfYZWsRLyKXQxCGhz9pyj6fPC09sNCRx5FV7qvZazfmHy8F46sIqF9bqXHxEPGnqojImU0ahu+gWh/gHWVezF+hsm93P+eH6vOWat0kg6bDnxiLyMAd1WoBsqs3xfn8w2+x+DzmoD/aRMMuzz7p2h1HY3R8hLuSIvs0LXjvjrb1BHd6No638WWSuAUHbEoxOhSevLLNRKSaOpNo+byQXeOrcgLM+8o3bOX/VOSA1vPK2kqcIwEF5GIUfDKdeUHOxHyFK4i//w2uY7RN9oKIimYIk8MLm+iZPnRGeXNnJ1dGTy1MBbdTOglHWlioub61T+1wxPwtTN6N+YgUuhksO6thks+kHp0R14Z1Tltj0Hg9TkIm4Tb196qK+r+HoERbn/QmdMC8wD7M9uMAuWrX3QzfKSGoMBiNGUfFVLw+VDzzG86OA+ziux/RnfANthTrXXQ1EGWHicGY8cWmDymefv1rCm+FMGQ4iP/Ks51tvOe4l1+ZcC9fv7pHaz9DdOBZu6At9KJw0p19QDZJTvvhq5LWh5gxCBbMG3xY7Wd+4yFNnRjy+kbB2yp8KYI4kHjA2V2qunFslkMZ+S5txesr4Pzh+6DyxiKbtTssZAcL44tRDxK/b4yGt0snprPUk9x1AOrz/i296UMPwfgJIWbgPt+gf5oJfEFdxbTutxdYeo5iM3f2G5Oq84okmzHTcxvT4faFf1ga82pviUZH1o86Ryfdj5EUiE2IeSJg4eiHx+NbyWOSjGaaG+ppVhI9fNb583eFSJDnH7X340muRV95ObA8cSZu8tI5mt0GiQWhyvzVSPAPvDqe+Yr+RaBr4y//kDXysSD7hSTjJRSk2Ny/w5LkBH11rGJigJBCfCzG3M2UurNdsrC2TUjOuFHTY3ibXx8GvykPTAy6i6TWFxs/Pvm7+XfODx3Ee6v1aYwe+rruHHiCc1sn+D8h+saP3tXCTWSgBOG8PTFQiF5hRnJPJc65ib9AQVfGhWhxrjD8/4+9oseBKdyubdNAfVCnrgHYfbCloz8YSXFwLXLuXxvW+RISmafhDl4Wv3qi51zSsB8dAlC994x4mntjsEPw+T1xZ4dlH17i05gmSCwSpGCahLX9dOGlOfR6qYfz+d+7x3//TG/Sco6ryvHyTiisXz/L0lvLxc4GRNflOLQ5nmos7p4aLZ9fZWAqYJpxz7VpCB51qR89Ami3TB9NVndpwVvvHIRbLAcKiDzhB4GgB7fZzwH5P9Rkw4cCaq5YtPsSxuzfEhQpVJfhASglxrZXZfn9i2g5QFs+BwwRxXtbnK1zNPdv9f/jz5O8liJLM89XX7hEttMVXLM/SssR33g68dtf4sfPQaCKaMbQhLjlGTW6rUVj2A37oyQ1+5LlVgmsnHpgvivoucOoFdTCM/Fd/702u743wMqKWPn1vbJ49w0cvVvzhiwI2xJsQ26TpmNWPC5srbPRcXk5EI+Kk9UNN+yWnxLB7jHkBlLbuyGGCOvWbTT8228b8/P+HsUQPm5561HveKbOBtklPjmfynqNF6JD9LtiYXVvtY+3YPCrs7ye8q9q6zJMRQpff2y17stCWzS51cpCoHliHdepl8zPNjmqrw4uQLOFFuLUnfPetnfbxPDEAc/hK+DtfdvzUI5G11DC0XC5QmxEDgJQXckyqJCKV9Hn+qudP/OgWgQaoDt1/4eE4dUP+nLzvMElgji9d2+fNO0O894RgOJfo9ftcObPKc+caPEMMl/1VltC2CMXFjT5rPYeK0ZYVagMTU/s6UCgm/s2Z689m/WmTulEznT/yk7kuitwNPY+yIO4rmty99OHEc7yHmRqqh7X1UF7PyW+Hvr07CJ3zcnLDWxRTAaxdFjzndw6jMIyGCxWgk3SkuVzNA8VUZCFQddDwfd4d6ca+naPXwZovfjNNzizJUfv1vrJSVeylUbvwg8OJMcLx1GbktZvC0+c8REFQ1Dl8snxudx9TPYPY8IWXB3z9lV1+/Ll1fuIPraBW40gkMbyGD0BU5b3lFB4+B5Id+KrGr37pLtEFnCTEeQTh6oULPL+1z0o1GKf+JAMkkNTYWq3ZWOm3F8shBUeOHV7DdLii+03JM5uYfXpGbxat07aP5IWfVQ6Z3jkT0IF8pbi5jYWg0HFM57F2OZU5ltZFTo4OFVnb33eyLfZp+jeb7Mhk3L8usDW5teh46J6A3UYZRMW7kIfy09/BfRyb/Pz88T0+KJkLNjoUIR0ztezwHNbu+8grR1w+V6Exr18maE7pS5Fnz1e8spdXxRoHzQ6p3m/SYClwZyD82r+5y1/51Zvc2x1ieJwG1MUj+1o4nlMnqNNi9P07xpev7aGWo5cpeZ48e5bLm3C5nyCFnGDTJnFbaljvV5xZ62MaGSd3z+/jEMt09vnZS37802ZeNH58QXpNwBxmDtNjQ/KtRTp7cU+nLI2naE6lXh3clExtc8JpOR1pRuw4QACZ2zpxewfbfJt22H5nRHiq353IKoiv2B8lGhWcC20E36GSj/n0dlzq1cz017Fvdeo7sOOre+XXLIry1CsOFFaZem69Z1RO0aTjWXQeWKsa+kuBmwOX16qadz3NUIPsE0SIqrx6Y4f/5R+8wVde2iY6w52+Aev7jlMnqHliU66U/7lv32YUPcEMFPp9Yf3CMs9vjEgiiEsooa1+D0uV4/zGUr482sr6zqYHbAdfVNOaM76w5i9MOnWaeg8z3rr2wuyEoRO/wy/GsfDh2m1RnG1aRA9sSsabWd7vZFsUrPkmupvEfLrT9H+Lro1F4VrYFvZzwH929GebHMu85RuLsLs3IiaHayuLiFhr/Uv+DsSmjO+DBfbg78NmzoVJ6pMbf1eH3xiPv9kdNGrp8OI4f65PwGN4GjxYXiHiseUh13b9+Dw/jHy7rFHJy64IFXtN4m/+xtv88y+8TUxHvLlwX5w6QfXtUg8pCb/74j4meY0m9Y4XHr/IJ1Z3qL3S1TAVS1lcMS6dWcYzGebntda6Q3DY0Iv2rj995zfMKSoJlZSrvi8M6bvfFgfn0l5Yhw1772s4ylEiyoIode05m93GOZUHDIcnObTzgnmcWC5e1guW4HFtdHURpj/L3OcZLz1Cjs43BHYGCTWXizabjl0pQuvbbL+W8Y3hkGN9VO7sotBPbOvJpNEJ05Z3mrmpdjeCydnRWbNmrq2923mGHWeWIcYETtuFrx3RGY9tCG/uGVXlsxXuFNSNFdmQ9pzr+jxtzuej+GtfuMk//Nx19lPuXC46NHUmj9ua27rH78O19GHg1Nn4+eRIvHWn4Ttv7lL5AJZYWe2zWa2wuQZqDU7aExOHI3F2tU/wjmSLkeEHGeKPTxtzbWL94tD/IDtvXCeA4/Z1cCtjAT34XUy62LWdf2rnAp195WHNMJH+cYcOeMfxF8/8BbaQz3lfF2AW1e698++Jkj2VZp7GAvuDEd77yb5MulkUk29Pxi3nx7uX0t1w5myMIzLgx0fGZK5Y9Vyx7AOLjR81KcDIq/TSTi4B8CzVfZb8Lo15VAyXcu3f/oqxt1/z7ZvKUvCcqQ1vDerAERE8A6lwMmyt85QPDW2dXwxzjn/5pdu4Rvh3P3sOMXL2i1m77lkXCJwW2YOzI6aDbUcF3j6InDpBdZYvoN/+9i2S89RiJHG88OgVnj23A9bg2nJp2kbuew42V2oSmtcB7q6DQ4d2MCsa2eqyyZPMS9O87DxIDunk7r9o3R0tpN3JPBVxnn67HbHf8cMH9fMY63j+Ajroepl77EghB+azpg6qpr/Qj/ammVS4tz9kqa7GFmTbyGKnJkZq+5L5723273mBNbNxZ8eiIbOfzy0c04MFdubmOddXZz77+FVzrmw7BXpjvc+b96CSEXhHsoZerPnTL0Ru7ni+d1f40i2P669zyQ04X0eW2GMp7TOUPjK1GoEBokbwjjhSvIv842/epFoa8rN/+DwjN8TL8niJ7emtO7yHZUd8WDl1gpqL/8JX30w4jUTxPLaxxsX+gJUlRaKgSrYaXD4Jz22ukC+hQNCGJP4o1+XCWnbtqZc1orsYpoTOsAUBHb/3CEGzOWvy2PfMpPm0Q+GjYlkLQ3UYZwJM3RgW3jfnfjiiGyfG/OeY7vthF6gYjFJgbzCiV9e5dsNMI7PC13mTZ19ibaL9wfsYC2wbkBqXaWTKQiMt3AAO7fMBj3c36tnFA0EsUXVpfQ6awQAZ3YW720hzjyZGsCGxSWz6xLoEnqmHSO3YAbyN8mKCItCHul37qtssga89ahExj1PoibF3s8ev/sYIlUDPe5yTcRWu7veqqlleXmJleYXV1VVWVlao6xrvZEGAP0ycOkE1M0ZJ+cYbezjyXP0nr2zw6BmHb4ao9LLQOCApG8s9et63kqitmB7sM5sk6E8uvYm1013iUyf9jBhpO/zJrzlcSCft2Pxwsg2KHP7ZD/lbDniss0AewE1ubfR4/PuYOb/BcW3afVikCxfaEUPrsdg4nMa8/LLz7DcQm4a6DqilBVGUSQPT2axz++5cAt1jOtM/mbnvZOu98ySM22sDRNLuS31eJ4oY8SLtSKnLNmk3MXw7GnAYZspwd5s7N69z5+4tBvdu5SV4VDHNBc/H+bciDFuB72bWqgoiQ6IIQqIvkr/7Lj/aDCSMP6cZiBdiAie54lpywp6Ak7w8YTBIKaEqxJjyZ2oPmSDcuX17XM5yLKAIzjucc3jvqauazTObbG1tsba2Rgg+T3ToujR38z7OVfB+dyGcOkEVhLd2jDs7A7wPnF3rc3G9YrNuUCraRZ3AwDtYXVnKawPp4UPZsU+rCz5NP3fILwd6Fs3IgYXj/INurs2D3Azz7S7Sugennp+OMs/Jy1RQYVqZxz66sT/xIBfDrG13EgGIxTYOEMOFYb/mmWw+cHd3H/GBUOU1v9qeH9rkzHNTAuuOuTgXRwDSiuyURLf5m2qCcw6XFBXJRaKdQyzhHWCJOBoy2tvm9q3r3Hr7bQaDPSw2mDbt95DysicapmZ8TQm8TKbKdna3dBa2TI7b7M/ubGgnGky14cY7mLQxaZOpNruPP99m+8f0aC3l9K4YI6PRiN3dXa69dg2AUIWx0K6trbG1dY6N9bVZ3zcT3+z7WTwP4tQJKgpffnW3rRplPHlhjUtLkcr22ZcejgjmQJXVlR51yGLazc9eCPpM/z3+dWpYP8eULM1xkGU3/cZFC/e491h3Gx/3Z7Ev832cPwkP9HfOPA/TIrzY7eN9qu8G898N5N6pVO2c/LzSZ9KcsH+wNdO+b+a52W9w+vhMz56avkctuAlkctyzwPmxVZ4MnAt4Z1gcMNzZ4c7bN7h98wY723fQOCKlOBYs55i4EcwhPpBU8W5K4Kx9zZSodp2SqQ7KgpBO5pTNiO10O1NtzP/Mr7EFoZ35edD+ZFpqJ205ca3FqzSjhr39Pa7fuI4Toa5r6rpmc3OTc2fP0Ov1qKpq/B3N9/n9yukTVIGvvraDJGV1peby2WUuLI1ocPhxXX3wTlhb7oMlkM5vOPfl0A31Zr+koy2wgwezR73FZsR0YtksGqXzAjvb6KIdli/CcXudlXBI5kHe3/w00gdfdvqwV3ft3M9Jf1wWwGILwjDB3nBIHaqp8aJmVepSmQ5o66h9TX+bZrZosc5nOcwJbJ6U4BBTKgeD/R1u37n+/7P3pjGXJed93++pOudu79bbdM8+Qw5JUQupiFoQKyZgUIESw1Bsx7AgCUhsBEE+ZPsQBPkQA/G3BAnsBP6SIIkhIIljJLADJ3ZiWkoEWXEsRQplS4xIekRyOFv3TO/d73K3c6qefKjl1Dn33u6eCTkzzelqvH3vPUtt59S//s9ST3Hz3Wuc3L9Nu1rEqFdgonHJioWk2yT2p1GCR0GIkCWYjpnuArsC2NK5joHmxhYgN8yrOJ6zKfSe8ZoOwHcw3+FnOley6gHjFNO5dXmU1WrNumk4PT3jrbevMhmPmUwnnDs6x7lzR+zNpo+FTvYxBFTlxrHHozx78YCLU09tGlpqVBtiLB1m44radsqaTDhE6DgfWwxQoYwkxgz4XbiHznlkJxZtFWmlD8e7dKIR6gvtxZb80z3bath963RmsnHF9t8PF+l3u48P2N0D0wbvI0RUNNFBXbGBk6JiWTWOdQtVFfR9UuiItZhMBg3pDfBYTP+SwRalm+Crsb02+nJ6sODUY7BYMTTNnPu33ubm1Tc5Pr6LW82xJoiwRgSpim2mTQV0e1QFIIosl+BbG64bsMcdbDLUsejLkoHG3+U121QGmyCrvfy3lT/Ms/ss4xf0YxkEA1nZJrPZFhOeWNM2NCcNp6enXL12ldl0yvnz5zl//jx7e7MwLj6CKoHHDlBVhHtnLcZanrmwz6VxmwdUF6fSM5tOMKQgEw/IrxCpe2aRJC6yRawOFUkZdBd2mW4FnV0uUOn4JtQNSi43mtvaju06vy1UuChj88CD19uwUYet3gSP9J53TMqrw0iN94o1SXxWVCrm8wbFYG03+2me8DpALA1FXT21O5gH3+aktnlv/K2CGEG1DUAjgmuFylas5nd5860/5Na1qzSrU6wJetPK1jHPAoRidR7IFiO4lvds5MHgng2xvhC306KVgjnuYpSBhRZ+J8WXrH8t6rORx8M+y7qWQM2QEeeGdeALLBZL5ot3ePf6dfb393n6qcscnTtkV/qwgPbxA1TgZK3sjSuuHNacn8zRuFGfiQah2ijjUdUB2KBvw+yWfpmc79Bs3huYg5HWd6cp6pcBWrYc36jFwBexa6SWFS+Y66Y4X9ZZyou36j/LXzpob79u5T07qfTu9EgstZQcapx3wUcyKCJpvHC2aqlNhU1MMor6Zf9InDC65pTAKb3mSLpuAFQ7u0INEuOQqhjwijZnfOsbX+fWte+gfoE1wV0oiPFdgPJter/trG4TqDZ/dy3o1ADpd1fxh+W/q7zuU3lPQLkFBHO/PvDa4vvD8pLgPWNM+Dw5OWE+nzN+Z8zzzz/L4cHBVrXCh5EeO0A1wOmq5flL57gwbjDS0nqLEQ9ecAjnphYLMbZplxJohg5XEpg+cDcI7a4LeaQBue3S7lotrt+uJ+0UCP1MCpgZhPMbgmXHRiUAhIZ7lE10SG3fxDnZvC5V8BFTCfGa+vy9vtRB1xLiCRjLculpvKeyFsQFbwQvWWWjwVGzV36Gsg3DY/guIpsMPgK0UN5aAJiEYOQGi/Wem9de59uv/iOMrhBVjOyFlbJhLRzJQS+lRwXOBzO/sk67PtP3hwBo/L69vO3lpzK2strePQ/RrRb39o4VetxdbDXooA3qFcTgvWexXPCtb3+bc+fP8dLzL2Qj1oeZHjtARWHdOC4dzTioHC0SNjYj6FFB2ZtOQR1gg69nlPWQygAAIABJREFUUv6nd12h70u5jfWlF9BsAMbWam1B2Z0ifgS2DbVmD0w3WW1vFU+vqN2GpTxZaAc7m/V+P+A5OCZd/+rOK7sU5rRi8Liwiq3xymLVIMZQWcHicN7iMBjT9UCYPwbse8Niz+Z57Z/TKObmqhRsV0QwXnHGgnF8++u/w403v4UVELWoUbRaUzmPx6JiOmB5ADvdBaa9azfANF0D9AAoZrgln83Pou/RQX26evVAc9fnxkTwcEPVdrXFNjDdnteGUSvec3z/mFfPXuWVVz7FdDrhw0yPHaCmzfUu7Fccjh3GhyAYPir1a3y2IBoJ0Yc65+xdIr32lI/CwHiUWVG+tbszs9L+ye2LB/qldqX3xfadCw9y9uVa+y0i+Y7yH/X8Nj3ig853BzdB7EHl+8hA1XuoKs7mDc4bbB1C7inQYghiqNs0HuaBSkSJ/p5SOYn0alZ6AyQAzfOY6d6XYMFXqgpef/X3ufHmN7FSRVALbkA4UKkQOp/WRxavH3DtLha6CYKbgLQbqH2hKy2ZrRZqhB0TgezQoQ7LeYQ8dk0o2/pqZ3nFxCgYGuf5zhtv8AM/8Gms9EnDB5keO0A1wNgazs2EaZUC4gihh5VJVQVdS46UE4BOBwytBwo9MC1ZYrdMcysz64n4wyWdw+u2MaaiJtoHSaRXrS0gt4ORbhwv1BUPYaOZOT9kGe3Qz7VkSam2D9MYiBjEeJwo3llOzuZU1RgxoN7FXIrrw03b6xUqgh8MJIneAlnVUQzK3J7h4ItALhoApxWLPz3hxhvfpLYhBi0M9Ixl1QbAtwtkdonvCSilyHAIpn0m1wHOELA3wahkjg9mgxt1fsAksHFN8Znvkv7nTvAtJr+HAXR53qvSNA1X377KC88/v1VC+SDSYweoAE8d7XNUt6xWDVUdXzgNA2g2rRFNDkcU5EPysU3QSZduEdt7zHBwfNu1OUkBmNKJ+FmiF/KyLk8+kSBvOzCn8gbneiz1vQVlSUshU5372XY9p4P7+vlsqdNDkmhYQnp61uKoGY+nccWTIDGoTTmjqGhwW4LdwLrF8FcGHUng2mFQMdEmVNGQvUqUWqzh3p3r4JosiGyAx5ARPgSICgTb+OxPHAPALUFpC6vbZvjZCYz5Hnr3PBBMi+ObgFzUdWue3XXl89mZV1F28cBy/sN62bi8d92sPzQwhccQUJUAqHuVo5WwIVlV2yDiI0xHNajHIwMuWgDNACE0MQ4EkrFjx7r6LjJUB9Dl8VSAYwDEGUi1Y6MCG/E8egL8btYLJTsPn4mpPSiVW3KUU8KDolptuG+VGZDqMHyJt2eWmMXJGlzjqewIKw51EdxEaTQ9jX4eOS5BxkBfnMsF9Oq9Mff0qpnie0miubFUya+I9x5rDdgKTYqlYqdU4v19hrnrs6tf3x90+/mUd3lul8ogAfvWvHrHdtevB+C7rh3k2X0v7ok6kV159c5tybMEbemV8eDPZOX/MC39jx2giioH+ybs2KOKw+DWiq0NtSoqIcYjqnEXUZsHWyCCpeZ0x3cN8aOGIdVKMJU4WHepAnomLy1BqchTk+411a8Afx3Wr193emd2xw8Y6j83z+fct+atuZ7F0Yzh2r+2AKX0oqv6IFW3GrYmaRyrpsGIxVgTHetDuOQ02LYqHAb9EeqRYSWW6nMfbQfYrvJpwPlonY8QkDslzVUWgzMVtQGnoZ7lYDWFyuDRjELbQLQETIr6l+J+Z4Tpg0763m2I0/UKxTVF/gUA9fIYfm5rw6Dc92SU2igvTZzDtnR13gTuAYD3G8jRweEThvqekigH0xEjM49jN4BJ03pMtLKmzR67OJQmg2maxXIq3G+Cy1F6NXeB6W5Xq8CI4kCVfDCKj115WY3QwwdJF2/qS/OlA2DLiK47jlNsTb1NTGfjXKdDLfhrck/S4eXpS78M6V0cXF0cluV8FSSHqiaZ/fI0k1zEevkVuQsBzHoTUro+SQOle1sHsAlMtndAVAvk5hZPXsOCA1VYr1aMJlPwPk6n3bskBWN94GdsR59V5YMDUC1Z3ACQii7ql7PpQ9rPp7unE6eLPHaoDrapEjbVCrHuW+s1qE+6p7h/2z1sKa+rK0WfhHKnkylVVT1hqO8pKYytUJvQqeHFNjj1NN6xahx1XcWVe0HwL5lpZ2AqRO+SbSoPZKbhc4soWeTRLaJKABsASqOutIsSn/5P9ch7Vw6b3JNVS9eqfvkSAVRgePUOmX3z+qJmG/fsZrLDXxpf9NYrbetpnMOaCismburno/ifGHxIEkEtY2RuP0A32YSBlTeFzgy2fHSJd2qRSblpY0qimp+55AktuduFOi4WS1at49z+XtB8q2DERLerTdB7ZEt/AbZ94NsOpLuMP7Lj/BBIHwqUhdqgu2c7KD8or4fn+aigux3kIfiloiBGmE6m1KP6iWP/e04iGCsYSUGdPaouOFcrtGrxa09VCZU12fcQoc+sBib0tJRxmLyGh5iY03YwjahA4TieAGCAZkMdXn47hiJtAucCcIdlJ/DetToLNploFwhbN67fxVo3m9zfIqWXJPSHU1iu1rReqEY1YoNKwHsXvDCIk5vSB8Eka6ca7hgbimZW2w30bd4Fm14Iqv216hoLDj1SsCPCFiMJ3BbzOav5KefPX2Q0HgXVzrblnaWetAeG+cLwtDYAtOvEB1rWtxx/6AqnYR69e3eI68PyHpDXQ0X+4t7hsfc26XTXoFCPaibjCWIevMHiB5UeP0CNDCKshPKBnYpiwtpTxFjUO1Zrj7PCuDaEABfRoi0SA2toZkfdMtIhwChJo5fxeAim+WC81/dXMOUXIA3YXF4HBnmAF+WiEvWL241Nmcf6EkiHgBLPZbAWhnuNbOpQhTJmQKmeSMwu8VofXYvCcs6wjr11yrp1OOepqzpEnHfd4opswS8nmUEfltuSbB8fkdnmLkt9G6e9jedYlJcijxE2VhQ1kYhql1OcRA2CN+n5hDY364Y33niDo3NHXLp0CTEdMEvxHEgidTH+0/9dRKstzK/UlT7gM6+7HwLpA+/pA9ijAOejAOSjs/MEukPwTS8YsX8MSaVS1qP7FEajmslkUuTf3/vqw0qPH6BKChYNgtlwgdIYa9IYQ+s83reMRlV4SBrXihcvckeRNsG0POa3MdPBNVnCT9Rqy57tPjPO+Jml91LYDy+ZlhnH4wkbNiNRbYJpXp665R3bFZE/uCsN65zySKBko/eRB/U4CTE8F+slqoaqqjBV3PyNcqlvl8yGsazfj73jeTwmEX/bxNENcFW2lpnaHc6Z1LINlhxLwBVN7ooKF96+dZu333qLp595hqevXGE8mSAIzjmMsVnayIw3YWzxrj0qEG2AROqS9wtuJWAO898Kqg9hsA+qc86iKK/IK0zSGsR3NvNVghTg1WNtxWwaRPuwk0Ex2ZuiDR9ieuwAVZVguZYhKIRkTLJ4h4ekwGLlqKxhPKrwvs1jRNODGGTTgV68rgemAdQ8/VEoGva8DyBKj856lOTWmN+w3pp7Ct0u7LLap0MJVvwGKAar9eBQn6FlvXH3wib1RKxWXwdMCVTht/Eh+hNVxdlKWK/XiEBVjVEB533YC/EB+iy3BeygGJDdbFKsXBrkZVL9Uj93DS+1pCUpl957UxqXIsuhb8Tqi5HdpnmKUtU1t27d4trVa+zt7/H0lad57vnngBBAOcyL4V0S04FpctPbVAm8F4D1O1njQ/PcBagR8HcB6k5mm/Ptct3Jigd1yH2g5BWOYiTvwjAej5lMJlRVlQNTN00b1C1GMJid79iHkR47QA19H2KFJvco6AaJ9z5eE8BUvccai3Oe08Wa8XiEpSUbijac1PuUboNhKn09qCbxu2B45fURnLVnKe/As7+CK+gtclsk5R8KFYbAW9a7r2rY6UM7bG8CUN1e/3BMOtYNtLbi9HQJeGxVYW3YriMMguQBbKKXxa4IQNsHQSp/m3EO+kzH+DQpbJ4LwkMBqr38N3c1SBJL1qUn4WO4HWssUJDMkGxlWcwXvPbaa3zzW9/k4GCPCxcu8OKLLzKdzlgtV0B4N421XRCXjD7bgXEnI3zY+fClB4IPZL0lA42gL73juxnq8JpdOtUHgXyimeo99ahmNptgbVjx2DQNbdvQNE3Ix6SJj25sDCaIDzM9doDqlGyQMtGBP7DDCDjhqYaO9uGh+SjTCZb1Ophl6jo+BHWR7UqhEwyDzDPQbRL5hQb4yyxL001bgFjS7y2N6YFpAvMIbAj4woqNbGWkGczz3JLykE0WjMRttLtJaGu9kt7QK4laK5Z1q8yX6wAKpsZIB9zlxBC0Br574XvnH546vdpg5iomQBHpb5kNmKEONbliic9STYKLsjrdvKz5tvzcNQ9f8gZ+ppwkkldyZO9iODk54/j+Cd/5zhtMp1POHx3x1FOXeOaZZ6jrOm4DojjXBm8HBHKw5dADQZDogEdTm+NRGQBWOF/6qg4hplNxRN1D1nWUqogew0zAF+/pgW6cYKW4RiTaKEomXtQjifbJw6OuKybjMePxBLFBt75er1mvG1SbXI/EmgOYFpN7HOsfpfTYAaoRqCQwxdItXkXzqqPE6LYOYYUWwa0cxsKoshlgjCRqYqJ7auEzGu9NEOuzsaZbvZNUqmlshvG86aa+Wx+bsyp0pJFJ924IgJCAdHh/7JAuMwq/WF+qBKSTkxOA+VCi8xImKRVOF0sUByIxRFoCfS2L2N6eHTg6ZKx96Oz6J+sgB/BQAuCmEUpLlIx5FBNVkZvGiTDoZwsQlbx8g+Qy/8gple+V1XLFzeYmd+/d5duvfZvpdMpsb4+DgwMuXrjIufPnMmgELwiPa4NI64tldGHy8hn8MgDGKpvie4p6n/ohdN/AyIMWesfw0maHBUkjqzB4DSaZbguTkG9yYUq9lY5ZaxnXY0ajEXVdh+NVOOdbh3OOtm1Yzle0rY/AGTj8Nr3o5hHdevTDSo8doApg4wDrnNYLVhZnz+2ia5eLF4N3SuscFVBVFWI8gs9MMPm4bviYZrDczDuzyFjHTZVB/wXoXK5SPp1rkybm0xODB0GmM7AIaZFCaVhK0nryMui9fApJF+d9GCRqhLWH1iurdQsIxo7Cix47tnMN25JnTg9+yTefz+BAYZRIpzampqznDD97c0NRs5K5iyRlgnQ73WQFt2aWF9qWp+sHtmUjRTDtJp74LFVYLNc0reP4/gnXr9/AGMtsNmUyGTObziLY7rM3mwXjXmKbWWUUonQ57b4nPW8vilYEwl7Iu1Ls7uhwxwILkM57WmVADecrW8Vtoi1VZUMd43djDEYEawJgSpZgQkFJD9r6Ft86mqbJm/YVamo+aiD5XtJjB6ioZ1SZsNtlFLkSi8zuRrv0h1lMjj5WAAiNKut1y6gKMyppRY6aXgzSPohKLitL/MW5vvhenkziEHmGh8AgxWueJPptGAQxyRjcvYVBz6n9Ykjr/YsDA+IoYvFAi+JbWDVrWucZjycYY0EEo0Fr3QuFWOb5XXj5N/G1lMnDf8PVaakuHdtMoJPYVDT/9OhoT+DoxAqi6Jx+S1/d854bU7BqkbBaLL0nieGpDyxsuVzRNA3zswXmzt28r/1oNGI8CkaZ0bhmPJ4wHo8Yj8eMR2PqusqAZgoQEwnG2bAbrMlMr2S35V+6L/drqV/OABvJive535z3tK7FucCq2/g+d+vpwRjLqK4ZjUY54n5aONg3ykVDXRwfj2t6/ABVFFtZ1q1ga08y1hgE713WSfVwJDOUnEU3+CDofYxh1TqkBWvA2jDTJmqa80sgmoCvZFKpwH5YqQ0g7rPODnAzmPbgJTBO7RHZNGILXaCmPVFN+J70e2q6ySbnHYJyt62j9dC2PixgMBYjY8Y1+NZhJRleiuWYMlCDwFZx4GGcbueQkfJLZFzlstReuVkg6V0Hqc87BptVst1M0q+olLwoLhrIeb+PiSNJCalM093eqZtDX9riZAAagxiL88qqaWi9xywNxpxhTVgiKJF5GhGMNVhrqCqLtYEpVrZCTDhukn62BFIS843lSdD/GiNZ5M9am2jMHD5Ta0zUpwciYm2od3CBSkBt0GjHyHsSb1PRpAmwMBA+junxA1Qs01pZrg17I5+t7uIVl2bAnkgqeSRqtCaVS0gTk0EVI2Ej6kaVtlFUmxA13gjGWjSDFhHAJOq26I4nwIwp6EuHMUm76wM4b24FHV6oYEzpwDQVZDIQd5dHHZv32Wqf3MfUKxgbrfCWxXIdX/IwgNSYbHnOejuR4IeZ6lKAeVeV/hDri20PE/l1+2U9FlkAafo5GNWlBqWnEtA+v8xeA9HAY8pJoNBPljrWMJHZ7Ya7h6bdN3Wvp1I8+t6tKR6FaP/PpO2nTWLhwS/ba0vrXI9VJ4+AlDKwZuYc+8IEQLXGYCMg5j+RDjQjk02/JQJm2EfLgJpcz6xR0DDRJdLTe2fLJhck5KNisX8/6bEDVK/w9Mzz5jrEPU3w5QgPxTmQ1KpsmEhskg02lQ1JGgdd9goAIxWNU9aNYozDGA2zsJBn0ay/KlhgyDityy+2UMkssRM3tTCtJdDUeG96sfpgWpQj6fqiWCGUqUEN4I2yalqaZo0xlsY3jOoReMVK0OlmXZckoBsyiPSZ6t/3Zd1IjwRA5Rr7XWf7PqEbHkwDlunj/1kVVNQwDPLOR7kX/CaCe5iMw70+A0JSKX3EBnnRuG2O/+V1pZN88kgojVO9WWmYNvL+iPXDRyw9doCKwMtHht9/F16aaU9HKALz5YqDgymijs6nVHv6t84CndyV6IGelaDfSiAT2KnSOh9Cz8XFA6ORDeJR2pcoDWavWfeagDMlT5qNQ537jDXQ7Z46oqB9ZexUhbB1SNJtEQLEIJbFYolzirE2WOoliGZgqGqHc01YzZNBtMs0rInud/mGHrY3AfTHWIc9D2eo5b0DwhhLMBl0Be1lKb2+SfeFfshRxqSbrMpCBIOXrjOT3i7nKYLgN57dRz4pMRB3Qtrt1wwB90GPKvsuJ73od6+235fpsQNUoeXSQcW8EQJsBcORSBA5lss1hwezAs7S+v0wM2erZw7Vt6kbMiq0KY6nagjhRjAKGTvG+5DHah24sSq07YpRVTEa1WE7axxBv9BnSv3VPgWYaqrrgJHGVqvvXJ8SkLRqOFs0OK/UowkOCbtumjHWBrcb0bhTJIqIx3gFqug9FZbjSmKmInjnULE7+/9BK7jS+UfDoH77hvkNiVB6VmWyG/clkI4+l1nXXYCnJIZW5t09ocRKg0ztN96Nj2IKIQQHovIWJrnhlJ+u63jHdolhi5fAk7Q9PYaACpWFi3uGk6ZmZl0RcMSx9obWu6jo17DraRIvi5Qs/RvHFRwug25iZ4l0JV1bHuJRxLbVBC/CfK1BjFZFaWnasNS1MpKNBgH8gxGqAygbQNhHkFdYrbVzKxGo61EA1lQjgaquqTRMLhWpXuFDfPSnze5FCUqiRjEqu3xi8gpkMN0NjFrkt/mAHnXQ9fWj2WLfy3uQ/yA4tCtOJVEd0agfTeABXVhEorFJexNbANm4pi2KyNljxERTik8lfjRAZcMqr5p9Z6Go5Xup7kDnOiznSXp4euwAFWwA1Klyf1kznYZhlXRDHqVpwVZEAEzTb5fSYBnyj4APnTjuB5bNPhMjssluBYlXH4HAEvhTcIRPjNN5aF3yElB8z0/PF4r5IiRcVWUmpurIrJsOhFIt+yup+tZ98p3dPQGziiM7AHQjmPbDKKhusslh2nDGz+rQBHwlKAxVDToAjG5ikqgySTrRqC/IQJO270pZSpmfhBV3qZy8IiitF3+CLU/SQ9KHt9/q+0zJEf4zV2punrngRgL5ZffA8cmCbpANLOwqoGYziHSZSTI25bP9pYqJ3aU17hqVsIJEKyxgPCousE5xODyeeCyaQi1KJWE/AYPHiqZV8GFZrXgUh9KgtEHtkHwNs9kmtrtnWOiMZSn52HdeBaeCqiEFcunE9Aj0SPxjoHve9qfZAJb/CH38oD/10v9Lxr2UL0HF4SVIH57uHLEMpatDqRTwSox0RXFf2R9decmVJzneawTQ9L4kNVE3+TxB1Sdpd3rsGGpw/BFeOISGGufDLoc+Kc4F2hZa77HRJpGhMQ6IgIPbxUmIgzn/GoCplF868TnfqSU4dwFYLEmHmxy1pPPLy+AomXYG8TNNCrZj08lYBpBF9gSmm4sa0sQw3Bp6c6lquShgM48Hpa161cHvTQv9rp9d+4sKETUw8Vxio0VQE+3uDyRTuudQiMKbelZ6onK6plynn/w1n6Qn6WHpsQNUCyDKfi08c2i5uRAuTCusLmm9oUJYiTJvHIfjEJcyO/onR/WCzAUxuwtC4jVtnBE5zwZA0Q3WbDWOwCV91hhE9JBbYkqd2FrqEAtYjbut9vOKYr52v0JWnZcCxXVeiB4BJaOKOzKli5ORLl1G4T87aLPHbBx7UNp25XCp7hCfHraZIAw13kIfBovryoUV8VqXdItJci8ZvSaDn4JEb8nYMU4s+4cXcPUYs54H3h6lEdShUgPtQ+v+JH13kyBZMx6Wi9eMaKjrPdCWznfyg02PncgPHfz90DOGt49nWNOiaqisReNeUyenC1wKhZcxZVd8zgh6mc0lMB2Um8W+7mQIYgEqJouh6XjKO+sru2qEY3EQh7KCGB7E0EEe5XLaHgPuA34n4iaw6Frjk3oi9p8X7TWlXOnlkxIiRuDaAFjVwR+9v+2qgf7f8J5hnhugnPpe+5NEUreUN2TVTtHfWSUQyxqWkPtU07MIx0duzdru8dynvoBXE/TeUSWCMTEU5JP0QadgbA5/joqxNtjJjMP9Gv8hgSk8hoDaRZnyfOoCODHM2xprDE1aC69K6w2LlSsstptGlw3QS8fZAqaBlvQZKODj0rqSsWbaFx30txqz8uVBUajxQBz2HSgWTDLp/FLdS8bqokeCRtDp6SMTgKc2and/d33SZ8Z6aNJHDsFTIWp6818CupzXNsDs/w3vGeaZgC8DrAZHNEcJ3LGPs/6Wrt6iWQfc04PG/vMadntIuwqg/WeuhHIbLEaVCy/8EBde+QnWChUNVtsdGxw+SR9EMl5oZYz1QqWORXXIhYsXgC1G1A+yXh9i2e8rBQk97CW1V8EPPet4+36N+hZX1VkEcF44OVv2mEgX/WYLs8s/u0GSVkBlN6XE1jIYJQDVDIZoXJMfrc2bzLTXmnwsgWzWlarpztEBRQKbIofidwKV8Msndlo0NBlaUhnZ4BPr4AV8YWDaBE+zCbL0/zbY5Za0cc8GtaVXrtJtwtab0FIeUW/aSQRdZ3eMs5xkoguZmo1FHz1jpiitd6gapk9/im8uZ9xuxrG3ecTWPknf7aQiVH7J0ghfOR7z1bOakUkWlg/vmTx2gGoBTPSVFPipZyvePmloZULlUmAUgxHPfO04XdOxj8JinDMA0NLRuwPKtOopi4uDumhcyphZqyadDlvAtNOZpsGuCTSzh0IcyNrpM/P1eTlpZFiSWKnJ1yRrt88g2oU4zBZr0gTSdxsrmSAM7Psl0G19WaWo33v7S4DpUZx2rNLDJjPWrpygjijqnMDWl4JCPCdhAGbGmifV9CyC54NLHgpFn4uuEakImnbDXd3nG8t9Xp9PaVtFZI035ADnQht6PU7E3oRNIremJ+QWABMdA8N+k4JXF3XVLsSY0OBPjfMYBSeKtA1vncD/+OaEf3BvRotBfdUzQH4Y6bEzSg3TxT3hU8/MeOfsLk8fAN5GJhpY7P3jMyYXD7HS4lyLyAjNeq/OPSqznh4IlnrGvmHGy+ZcFGF4c+PAxI4KW4l2J3JZ3XbR3X1Kd7xXzoaOMJzJbLpXfmRjBAf2oYWoY+tD41ME72E7txqQiokIeKhZXBUKiaFzVQq/toGQjxd0UeK7QMj99faBkZoihmiK9QkBXMvalbemFkhSE8gMYYmTCe70NtYvaI3nzWqPd5YNh63nyqjh0DpUDAvGGBpUPRWKdS0qFlEf3yH6EZ8+lmmDmgRnDBcnP2tATHgjdM3I1LQq+FHL6aLh2tU5X9Hz3DLPULOmEjg5m4OZAUN/lg82PfaAKqL8yZcb/uJvnufnZsdgQvSdNEjWrXI6X3O4bzEiuFbzVgoPdtxPAGgy+CWe2mcxxb3a7R1VHleAbNtRknXeS2JXIdxZz4qfKPXAFaqz4IcrU55DfV6njoh552mjz8DC0Si86vBFLxceFG3Kk4wOL8/1385kh9cOJYGtF6VSN/LMpqkcFDqdiAtO08qqQX3yViKR9JpeW2IEJgIIO99ixDI/foerr/4WTirAMXJLGq25qZbbZwtqWXHRrniqmoMZh4j03uCNwZQSkBTM+WOrLui/Tx6PMeBNWGEorkathcriWji+d5urx0teXz/F9dFl7lQj9tSzr2es7QRxS9659g6/dudrfOlLX0S8R+zu5dPfy/TYA6qq4ehwxI9ddrx5UvHcQdiLxhjBeQVjuHe6YDI+oDZgjS/ijpYpgop0A60Lu5cgomB6Jcip5BirGzrTnlOAZrE9qGOHDLX83t/5NOsm/QDM06RQ5leE95NUFolZxoAq2mkAc+t6zLNjexsr2r30rtmEBX04VhQMNrPScqBtAZwUTb/TEafSw4GOmaT1+gX1THVOulZJT1OKRcgS2WzQgxtVKvE4Y7n2tf+Tyq2w2LCvmaupafEsWNPSuglX25q3lkvO6YKpFWZG2RsZJqMxdVVjbG/G+fjiKVsmY0JE/9ViyfHxTeZnc66fet6tLnB/coVFdYSOHCM8h36FyoQWofYtKzOjwnHt2lX+yTe/zQ986lN8OHD6fQCoYXx4/tQPW/79X7U8fbDCOmgrh1BjFZwId46XXD6/h/o1nir7Heaty9KgjqrCBD0lC5T4fx/Mkhg5ZLiD79l3NcVITcAcy6BkpR2YKonldvqCxHoDkEpRRmS+pW4tE+WWAAAgAElEQVQ0lpVWmA3jBXVGrc5VKLlzbWtLbkR5xVDFsVWS7R8U77P/a/pfCwAsCGO+IskTWQhIYrz6yPzSSo7YW5JUGLHvchVSRKYuUEqnAyVLNx6hdcLZ3bfQxT3Gdc35asWNleIqh1PAV1SAp4nPZMJtGSFtg/UtdunY1zmTas5+rRyMhHE9ZTLbZzqbYgxgNCwgk6BqENG8kk9EkbwdpMkTenrGed86jROSdOHVs2yRGxXeMTGmOF9MbPEfcW81VU+LCSAhUYUS3QOFFHAoeJcYCePQx+hrJj6n0M8WqyFOgpeKyioqNcv5GXfv3uXe/WNOj+9wa6ncqi5zMn6KlX2O9nAPlSBZqnhqHYHC2noq1nipAWGsjnNn1/AKr3/nO/zgpz+97QX8QNJjD6gqHnGGo4nyc592fP2dKZ99umXSCEtjQVrUwappOZ2vOJxWwWyldDq8LYChpT4xgVuOr1pcmlnaJgAlnV+nNsjEsHddIYxSAkd4rbvh0TNslVUuDgzDBuZlCqoDXWjMTxJYJ4Ae5Eu/zWXe+fcWAN3KWssk/eO5Lws9bML13hWSCWaIMkYEBY3ce0M5mkqRED9Xuv6UyNTz2n8KEIrVdcbi1k2MWNbyA+dn3FvdxzcStv6wBuOD83Pi+8Z7VIRGLGs1LMwIq0LVKFULE2kZ3b/NSBv2jLA3qZmMKybTPSbTPaaTGZM9i0iNisEZS60x6L+2iAFLTQ6eHgEtTBSAmBDPNU/KKeYtERBDMkU/ZPUJcRmzUayRWIoneEMYKvWIMThpUWuxoojYOKYsJv4TI3hRGreguXeXs9WK5WLB2ekxZ8dn3Fkqp+aAVb3P0uxzNnqJ9YVDLG14phKj/qMxMLWwtg1VmjScxUoDZsL5e39AvbyPori2LZ/iB54ee0AVL3gb/NL+uc9O+PU3PC/NHXZcI9pgBFwcLXdPzrDVEdMa0BBerwzwDJ2lXYuXEQKY9tR8kRHmZawZJEufVs2skSh6p2WiPQYbCoiXlW5BfXefzGTjQOrKSKuq+qy2MzJpIR5369W761LeQlF4r/29vogvdXdC2Lz6wakjoEkU3wbBAw5VIJ5SqmZiFjmKVHiKXXCTuFouemV0sVaSiifJHl1zOtg1mHoMYqjwHNkVX7y8x2/eOOVeY6Fdx4UdFtQF49OgHaIejMWZGm8q1qbCWEstwn0JuweMlivsoqH2N6i1ZaRr6qpiMq6ZjadU0xHj0YTReMKoHjMaVdSVpaorbFWFzfPExrpHPXCcECXN5mIj4Eom96EbQqcaBauCqEF88DZxJiybNlbAtbSAXysa95NqvadtGpxvaZuGZt2yXjWcLRes2xYvBjc5h84usBqdx42eZnX+HCqGVpVWCcZi9Yy0iYKb7eFhcv+rvSDYEEXNOoxaLt/+KpdOvoUSNjR85umnP9QIWY89oCIOqEA8Tgz/+k/CX/mHNV96eU4lgjoQk4QZy427Z1y+MGNa2S5AcxwCwXlfCjCJADlgpmg6DkPDVKdH1Qw0yVczZNj3kgsstgPTrtyusI7xluJwV8m8sqrIg+gWlVQapZErAKwWeXV1yDkX1/vcRZtsPCNbr0oPh9WeGF+AYq8OkTulqoUloQP2kQAiThppr6VyEiKty8/1C1enPeM1nksGRdG0hbYi6jECthrhmiVGLaNJy888N+YPJ8I33l2xaJZ4sTi/3Q9RsahajIY8jUbx1xjW1iLG0MoMYy1iwqZ71hoqddS+RVyDPV1QaUPlT7FujfEu8DZ1kSUKYg2jyjKqLNaA2nHY6ylu21xJ2sRPMMYWIQ+jukO6iTqt0FZ1eK849cHYS2CkSoWxNVrXMJrSjqa40Qw/OoCDA9zlC7jJBRjNqIxlXFc0XmmdIs0KdS3qHbRNVmRo7KshHIqAqMGJRStFdMn+6pgX7nydUXMKWiN49g/2eenllx/67n0v02MPqCoVhhXqR2DgpfOGH33Z8LUbM37s8oq1bRC10RBkQB13TuZcPpxhRUCKsHlZr5ZzjwA78AYg4U95tFximlhjBCDJN2wF0zL3uFApl9Q3wHQZlHUeWt21AO2e32U4GSeXYuiX53u/+0Df64De9WxJD2YJQ1DeRSoS+xdJ/RlEdyDrGYfPJ4N/UiBqv4AM5sXxAMbSzafxnI0gvlqvmNQVrfdU3qJG+MwlwycvjviDd894/cZdTr3i1GC0r1xJOlAVARPjuMa8jfoA4CYEJpdoQfQquGoCEvZu8jKisQaqEVR1bJ5itAXvsL7B+ga8w/jgC1v74IQtaXWKBGMtyYhK2M0h73yKoEZimRaxBrVTsCN8NcZUY9xoD6oRWo9RO0Kk2+cqbBoYJgRM3PTPO8Qa1lhEW6xf4aL6QRSsQpO8XWJcWpOfRXq+gmKxNBye3uLCyU32l2+BsVReaYzj6PCQz3/+c6Sdaz8slvrYA2rotjFiQ2Mcyi/8SMV/8n/Mef0YXjyq8eqp8azV0Noxvllx+/6Ci0f7SI5YnwYefTY6pE8lUxsAX2I74UjUW0qZD/kKLRhsB5IJ6EpvASnYpNJTM9AH06T3zaQz1VU7I7d2hfWa1Nm8E4MdtrsErb6b0pCpP5r+KsJaHjQbm0QD3cAoJ4U49DM5TjrCTghIerciryTeJyCFuLNCaH1pDDMIxEHusviszM/mVPWYura4NgS+GZmaH3vmiC88d4Xv3LzLt6/f4J0Tj0+ha4lBq2NbvRNMHU4KdWiLVzAtQhXFXen0xxIWqiAeEYtRh4kbXgX2bsFWtNWYNm3gFyPAzEX6wGLSb8mPSMTm44G1GjAm6EVt2pK6QkwAy7AzgAlt8k0AZONBqtiFLnhNSKp7MmAlv94KNS0a9bwIGK84E3bqtWoQb0NgbwGHZeRaLi1e5+LJG9TNgnU9zZ4ZzlpeeuF5PvnJTwQAlw8PTOH7AFCHSUUY6Yp/46dn/Ae/DhdH95lNDCssFQ3qHIhwtvL4ewuunJ+hug5ioISVRckvUaVzP4IOoDomGpLXMADS5n7liqZegJM0fDXAQnnekY4VLLcI7tL5qybwLEHMRP1ux1Bzf+Rr0+lCbNdgOAgHYtwBOpG6A7HOqBYv7vf5Vh/SB6dNoNw2CCRinaZf2Yc0K1IBk1QyCSRUss44G6GS75gIRHHfo3nv+tTP4axitNwCJdXVc3JyjDHChfMXaNu4QEQ8LXNevDTms1c+ybFzvHnjLt9+5z7Xjxe0GCwWnFJVBB2gCt4avA1srS7KeT8pAHBSYYW2mkAfu/6OW/f4CMbhPgVvMMaSw/uoD94FeSGCQbyAcfC+HJLSOxeZqatB16i0eFljPMGXQMBVLWIaps2a82d3Obe4xqS5G59XhdQVtj1Bqbh06SKf+cynmUwmYUdfAefcQ+ryvU3fd4BaEXSqh/vwr/14w1/6rSN+4RN30KrGeR/9U8OmdYv1mnfutlw+OkBMeJFCDNLCw7Fn6d/cMiVFyevA1GQ21F/9pF02iRlFRpXdqDIL1KyPpahDLzAKIR+01IcOgXRg/Cp+eEl16MRmH608AfrLmAGDyWFj5ZZ0oB/Tw1jCsB9lG0ONywhzu5KomBUgJZtO4BsgMRlkOhadWKxGAM0Fo5rkgnBv6B8Q3xn7gr41LCldrVa8+eabVHXFC8+/gFeHXbU475mj1CifunzEDz5zAUV552TFjfsL3rp9zLsnK7w1VHWNYKhceBd7/TVUsTxiSm5TYd5IEkY3cYUVSHSiPfHxi4ZXCY/BhM0e4vEqxzT4/8P6uucX+nGFxwM1qpazUcNec8rF5Q0uLW8xXc+DG5ppMcaAHeG8sNI1E2/40c/8IBeffTack7APWtrR1sYNNZ+I/N+l5LDRrcTxuWdrfulz8D9/7ZA/8/IJCzPDuiaIhD4sAFi0cOPOCRcu7FNJEiEj4BRgqmk9ccFON7cGka2DoQ+IHZjG3NJb3YEuREMY+drk4pTOd2CaythkfGVNOuaZltvmCmRxP/ux9ulor75Q+PVvuCpstvmhKTHVzM4kYWneWLFTlXZt6waMkNQFKfiNSNjVNPVAdo+Kl6OlKiHpTTUvgshti+JzXkqsJAEWVWU+n/PqH77KZDzj4MIhz1y5zPLkjKYFpGLtQKm4MhOuzCb8yDPn8OqZL1tO1o4bC8e7Zw33FyuEUWTi7w8MynemBNXcHJGwQWPU4+I1yGImTURRF0oMbI7B5J0tos9pkd97SR6lSveKoNowW9xif/EOB8t7VM4Ba4y0oEJrAzu2foxvFazwyidf4tJTF5hOZigVYRcLRdUFJo7mnXyfiPzfxWQH3/7Zz8B8bvnbr1v++CeUpnKYFryMUFljFBbec/P2CecP95jUnTUd6FijaPR97FJy2ynGGxCXhyZGW+oehzpTIqMtDiZxtjNuGXLoQE3AV7pmJTDVzJYpVA4hz8g4SQ7vEUAwePVgBO9axFTkHQUKRq6Z7XR90n0koB6C69DePQDYQozfuC7id+j37ooQqbWYOAREPOqDbs+px4gg3mUjVnaWj0VqBpwk7ifjVNe3JrVZ40YwamPvWpS2I1zxy3xxyvztU65fvcb+3h4XLp7nypULrFZrlsslru0mA2MsexPD/lR45pzweQSvnqZZs/TCwllOV45bruascTQqqKkweAQXjUgGqyHUiy90lSZJRhEYRW1mrZBYeuxlIU84Kp1apThKnEFCH5uoKvE2es24qMsexXUA8XlKYNuVWzNenTB1KybNKXVzyrg5pWoWOHWYiOtSEBSJR6z3PPXUJZ559hn29vaobJXfdq8eaHqTJ3GCfeRJ/HuYRD8KtfgeJsXhneWvfVX53TcX/OyLirOKcQ2thliXLlr/DcrRwR4H4xQFKop8AVV6K5C0HPRoFvVT/M0oQ0UwK1howVZLMNUCrDswDeWnBQLlstfuHS7AlAiuuYyYN4ntxivVgNrQO3EbFXVhPbXmcvveB127OzEynfabqLhB1M3gml0BmCKNCcN6mG9yZeo4ejRsVKAtIoZafNCjVSNQDeVqWOXTyy65GmmH2SJd24wk3aOjufcu737179Iu1yybFU3TslquaNs2siTFtS5/V+8QY5hOJ1y6eInLV64wnQY932KxYLVa4b3HOZ9ZsGQf0aiC0Cb4cKqlUfAeWiwNFWsvLP2IVoUVsAYaLK3WcQIMxilvkmtYAlSJxSWQ7YxYxhjUmOxOlf6IK5UqI4iByigj3zJRx8i3jHUetqTUNVZbar/Gqo+bLPpIOlyWQDyK8QHwrRWsNUwnUy49dYmLFy8yHk+oKot3Pm56GV607I2Q69W1pfzbm064ePHijpfre5++7xjqMIm3iHX80ucsvqn5lTdavvSix0jQF6kEnWlii7fvz2mmlv29faxA2sbEJ10AEUylA74EYgGwIkBtiMOFUSrdQ7o/QZf08kyA3akeSHdnMO3HBejq4RNzLFyoAhOrCFNDizOK98LbtxYcr+ATVw7YN6sYAETzJCKUqozOL7VUGwx6feM5bNqtNhE1rXhKwU2kUJV2HqNAdKlJll7VNajh1esL9kfCcxdmVG6JiiW5h3mVYGiJ/SKFCiBOf/mZiJReGw9OUYOQvQzCQYP3ysnJGfOzJW+9/RaTyYSD/QPOnT/PhQvnmc1mMYCKp1mvWa/awGa9D4Gv48aFFVChaBUYopEGj2JZxm40ZB0JLvtMh3dnFNoe+zsw9n6bJE1gUSUgPj7vlCUuOg1onKBsfsdB45JdyWEu09booopYg1ihshNqY5hOJhweHLB3OOPg4IDpZMpoNMYYwkTTNrTtirY1kXkGIDVxVnwconN93wOqmjAYKwP/0k8J4/+75te/PeePfXKEMR7xMeYiEre3gHsLz9n6hHP7E6YjWzDMIt8emJZsVaAY/KVhqgPk4hpNBqjSM6DQfxZeAhD9SlM5Gdi1+531gJsGKY3qRhMHwv0z4drtM85axQm8du0un3j6PLPagUre9z4vYcyAXnYEUER72sZqt6cIXll+LkJTa3me3L8ZVqPsHiJvKWsxvHZtzZ2546YR3j2+z4sXp1zaC88dScw79FcQjZMvZrcss9Or5uLf2xBOapkoPqS2VVLjG8/J8Snz0znvXH0HsYb92ZT9vT0ODg442N/jqaeeoaqCqiqF4W2altVqzbpZs16vaZsmsNvYdvU+EAIF79OeaJHBsUJEQshlIepQY0VTw3zXs/m9SXwyimFeCa5UJqxgspHFWmuDbtQa6rpmMp0yG4+ZzqZM92ZMxmNGdsRoOmIymWBsENm1VdrW0TQNTbOibRzO+azSKsNvGlM8m48+nn7/A2oU4MBARcUv/tNQTSf8L19z/PFXGqZ1hZM1tatwEt1CxLF2hpt3F0xnFYd7I+r4YIkuOYklxiHYAWLpqK99tqqkkHJaiP6mk3+TW1S83xdqgjBGiwFPAmEykHqRbMFOACL4sLcWFvGB4Syc4frdFbePA4szEWlWavjmO/d44dKMC7Ma8S1OTAagtJ/S0BhVGtO64w8B1qwbTWy0P2AijyT4X0oEqORNEQyEFZ6z1vDaO/e5v66oIrNdt8q3rs+5VguXDidcPKyZ2aBfVTU5MI4K2OxpFJlVqlrsc/E22L7VFctUdyRNygrtDtCtwBMJKopKwnbji3VD4044OZlHPaYwHo+ZTCdMJgGEZtMZe3szLk3PM5lMsDb4e5Zued4HMHLOBfchyN/THwS1QepLH403IoI1QVdujMEYgzUGay3GWiprsVWFNcEzwVqhqqoApvHTxK3NnXO0bVC5OOd6klXbNIxkBF5oY327dyFuRaPlqyG5naVx7aOevu8BdZgE+PnPVzy7P+K//M2WP/IiPL8/Zm0bbGtpjQuDQkHEMD9bs1ysOdifMZuMEMJSRHXEnTQTgAU+V4rXWv4mQUf34uQFdxmUCmNTl9GA88WBlJa4RvaW9JjJIq3RouuoEHUY8TQKt04s1+/cw0mF2jowARJbg9YLr99ccLy/5oWL+9j1mpUdgfdRD5nclMiguYGdKh1r3ZVytKkkcg9kUZKQWqhPvKKmwnrHSFtuzQ3fvnXG0ldMJARyBh/ZGSxaw9u3V7x754yDvYpz+yPOTSrGtaEmMNWwJ5iCxpicaqL+L4CPmgbwwSezkA++q0nAWIMRg6pnvV7jWsdiseL+vZMAKCaEt6vqirqqO6CzlrqqqKqKuq4ZjUdYWzEeTRjXdT5nIvDZCJoSPyEAqfqk9goA3bYt6n0HzKq0bctq1fTAPDchgbOtArMUwVgb3Zhsvub7PX3sABWgFcMf/YTjuQt7/EdfXnH9cM0XnvGsMIz8CGfa8GKhqFgcQbd6fDbnYG/KdDzCSBhcvoh5lEX/LDNKD3S61y/qswZgmvd2iiJv34G/c+PyaBcXlcSWE3uNztuxfEHxarh31nD93px1a8CMUe+w4uI00FnCfWS9t+7D2fyYF58+ZIJDcKgKbVggmdvUtaifZANl+0kHAJq9J6K/Z/zRgW2E8sq3rKXmtdsNt44XQZ0jHicWE9dXSrpH2tivI44XcLxY8ZasGRvP3hj2phVHkxHjUY0RYsT46CmgoOoQW7GOag1Fh5qf706KE6PYqDf3CjY+SxNE66CPNCCW1iveO1i3Pf1yaenLVvCkD5W4Iqtke5GtJj9Ya4JPbAJdYwxSWayxGGsyG81/YvJEkEA6K3Fi3ukZfxzAFD6mgFo5pTWWT5xf8Vd+fspf/nuOv/2NET/72ZbGLqGNy+jEhz2KAIyh9XD7eImwYH864WB/Cr6lMsT9iEo2ObDoF+w0GbWgFO/jbUnn2mOmXUSsLr5puFaluzevuvKAGFrnuHPWcvd4TqMGryGcIaJUxtC6FpEq+xcmB3cvBkzDohVefeuYS0c1Tx1NsRrckVweJX2WklPWET8gZYtTbGHSk2Vvhs7Q4yMzFKm4Pm9568ZdGg31HokP7CpuHZxVbaKIVsFzQdcAWGtBPY0a7i2Ee0t4V1ag8xAAxVD4S2qeGCfrU45Si74XiCod4AQ2KnRux1HHGbAeayXoTm3H4IPWSJBktSc8F2s65hjVoP0+D+tIg0dD1ImG8iODtZbyOZagqKrda9khdCYHZds+TuljCahYiQ0fM63gL/yJfX7j9Za/9OWGP/IJ+OwlYWGVUSMoDa3Zw4gPjEUBEY4XDffnK6qq5uhgj0kV3GaM5gV8eSfO6E+Q9YA9Cz6S4iMXutcQWrA0LKkStzyO3FchRDEK1wf8V5yxLFrl5r0TluvAn71aBIs1HuNNdL9pqWyF8xWWlpUV7FpZ1Q7bOAwWY6FpLTeO19w8XnH5aMqVgwqrnjZ6DHgJvqw2AkBiQd2eWx1wZvCV4DzeOc0bxC8xtsL56FsoVVz/3YKtOF23vHb9jKZdB4u08RgPLYqVEHrOVY7aV2ArdN1CDS0OsSOsrsPWGmYZvTeUCgnelCIBQIFWO1cjMUkqCFEiAsp9bzYp1jjT5vi8PjDWISKl8IMSpRiiuqZjqNFqkFZCJbGJoHPvGC2dxV8ioYTslpTA00RXJaOB4YoJ5SUWnyYwQ3gGpriXIQB/DNLHE1CHSRx/7CXhR//8If/Zl8/4b/7Rml/4QUFmHtEJE7/Cq8dT4ZEcxgyE9XrNzdtrLIZ6ZDjYm2IrqIiO1r6lQmgjEwwEM3ALXwBMUDHEtfwRTJMxIVlfjUZHfAEvDgjK/YaKReM5PluxWDQ4TNgRVSrEtwHIjeK8o6UC7xhhUTEsmzP+/m/d4Yc/eZ7nXxoxWdvOLcpXIAtELU4q3rm34ub9BRf2RhwdzpiIUvkm+9R6LEqIC2q0oaBZJI1x/IqqxYjG5RceZ0PACxWPqMdKyxrDnTPlxr1jWifBITw5tCp4AxUWZxwWj19afuX/Oeb5iytefuU8R7XDrydYdRgdBfOcjGi9w1qhVS38UyVGOCrEh4wL8oGLrA8u7REkgO96egggDojpxzU9AVRA1IJxnJ+t+Qt/Zo+vX53xl798ymTW8sWXlPE4+AUKIRRaGf4z7XPUqLJeOear0zgAlel4zHhUY00Q1QJhjYYNLQIaJ+syvuc5kGIhkTwDjAYHbyesGsNi3TJfrli3wTOx9T6sJYqsAo0O1RIoj4hg1WNHnvmp46vfOGUxn/Mf/uIl/rvfuMfv/O6IH/+Rfaytg6pDlhjGICGGZ1qwcOOk5fbpfUZGOXc4Y39aU9sYts43YCQsAZZU9y2LBIzPE4ooVK5BjWHVwrxx3Dtec7ryhAB0ik26TVLbosuZgVqF71xrefPdO/y3/9aLvHb1lL/2G6d85c6Cz3zqiKfPT9nfV7yL6/FRxEU3IG2C7k8LYTXI9nnpa1DVFHrxJ+lJ2pGeACohor/1FmcsYwc/9pznv/hz+/zK753yN//xgmcPlM8+t8+FqbL2Dd5UYZuLCDDBl5EgwgaahaqwPlvjz1aImBD70hDdTcKKFCtp64wu2hEag/uq4r3SeE/TuvDnPK3zOC84B15sih6JoFhJy7QDs01WbJGwnLYyI44Xc775/97n9p01f/6f3+OX/pkf5Nye40ufe4q/+r+/wS//+nV+9EeucPnyGF1ajGlRDBafmbSI4BTmXji9O6e6o9S1YTqyTMc1k8pQGY+1Bms0bufctww7D62H1inrxnHWWE7npzQeGk8MExfC8BksqEGMy6tnjIRlnMszx++9do9/6lnll/+dV3jqIvzkKxf5uZ+6yLfedfytf/A2//C1E67fbnnxuSnnD2sunN9nf2qCt4YfBQu/eFSiqkV8juIf9I6F687HQ3J9kt5n+r5fevpIScPmYsnSrUhQlRm4edryd/7xmr//tXvMpiM+/4Lh0mHFqjGIrKN4bSPABvbi1QfDTRadbRTxQbVjZhp9KpMiy0WGGghssPp3a/sFrwZVF4ANTwgKYnHxJtFgOENs9D4Ixgpr4O7dhm+8dpvTu0v+1E9f4F/+0iWeOTdJ+2Rkve9vv7rgP/4bb3DTj/ncp/eYjQ5xuqYVDavOcPQ8FJQQ2zIxRrplnia6+0RtXCxH46SheA3AGshf1A0Slpd6ITBI77AmiOFCjZo1RitEW159e8npYsm//aXL/NmfnFHX0VDjDWqiyxXKyRxev77gK6/e47e/Need28Lbd+Ywsly+aDnY22dUGyqr2Di5JR7qcBy1t/is+02WDprVgnXb5KWnECa+5Ava+YWG3yH6ft9KXpng4ynWUFlLZULUfmuDMaiyVXdPuj9a1quq2lBBSEL6Qj/a6TEHxwa/g7Eq+aP2Lfx9i340Wu04b02qo+QoUCb6s9Z1TV1bxuMxzjka51DnaNs2+q62QcqKKq7kziWmWFZKMNYJu5eeGoHZdMqFCxc+NK+CJ4D6CMkBx2fwK1+d86vfmHN2tubznxjx3LmaUQXOeRojWBdMMK2Bqg0BHUIo4eiClQ1MhYuUT8YpJQVC6QKTBAfsJPY77zG2CjrcFBAlbjDv1aNMURpEg3NT0zreur7gG9+6z/5Y+LM/NeNf/OLzXD6UEDVdhGqg/FJgvoa//mu3+au/fpujS2M++fwB41GF0tIQjFJpSWq3Y2zUD6efhGPpd/l6q9K7Kpes5JUxRkywaovDGY9nTG1a8PD2nTVvvLXgT3x+yr/5M0dcuWhDNKWtG5DQqVEicJ+sGm6etty62/DmNeXNd0+5ftxwvHY0TmLMXKisZWKUi7MTrqy+wvHqDF0qq3b1BFA/YoAKYAVms9mHupb/CaA+StKgm1Q8rTf8wesr/vpv3uUPbxiunLd88go8fViFJ0pYDtgaMN5G9PA4DVrRzOogg1G2+Eezq0sXSfAACEssI/v1yRcyGK983MfIaVg+Kt7y7o37vP7WnOu3l3zu+Zo/9zNP88UfPseoBmc8VkN4OxPr01cLhrJbgbtnK/7z//UOf/f35+wdjfjk0/vM9i04S1jdkoJXRCqeY6jqAFjJhZRW5z6LiH6TJgIrkcTMsuQAACAASURBVDWLxxrLet1y9dYJ1952/MSnJ/y7P3fEZ56eYJOOVgbNSK3RMlRfURMPGI06bdO5cEp/pZMgHC/O+Bv//d/k3vwebuFZtesngPoRA1SRsEPq4eEhR0dHW96EDyY90aFuScOYiilyPwhjq/z4J0d84ZWnWK0c/9vvrfjy7y34jRtLnrroeOXZGZdmFZNJYFdehdbUiCaumsAnGamAwm0qwBJhqWc22ghp76vk3tKxW8+dsyXH9+HN12/y9s01r1zZ4xf/6BH/wk+/zNFejfEOjMu7EaCErY+ti6HeBsAmggWemk75iz//LP/en4b/+ldv8z/97nVOVhM++/IBB0c1VlqMGWW9bwoIHVrjcwCSQKZznP3iP80oZ+Jg90rYQ4mwQuf0RLh6Y87pYs4XP7XHL/+r57g8NQhV3Oc9moqiimaYujBvkkg0ngaxIXCKCSvdo+eFFssWYid7z+Fon2effYnjb96noXlf79ST9L1NqmG12d7e3odajycM9VGSroFRIo1RcgyWEy9gaPEY/q9vOP7OV+7w9Wtzbt12PHup5pXn9zgYOw73K+o6WpaTgSbBaHwCQQ+ZrOJkNYFqcNVyvmW59hwfO05OGr5z9T5vXr3Pcxcv8unLjj/5My/wc184BAnMy0ewMF7ybtbiwNsWT6hHtdVyHfSzLRVGHKrBYm9U+e3XW/7Tv/cu33ptgbV7vPByzdEMxqNR9Jski9YBwaJFflBE6stYK0JcU2HVek7PGq7fWXP7ZM0nLk/4V376gD/9kxNwYaMQL0FPi/oYUQqQVfBIePCDDG2jC0BiIANtmsxKau0kREFVVvwPf/1v8frVa7TrltVySdsGcHXq8VEZ7JUYsERR9U8Y6vtgqJmJ9hhqmGjDyi/JixEySzWGpy5cYDadlC/WB56eAOp3KSkJrBrW1IxZ8wdXHV/+ym3+yZst37ndcON2w3qhXDgyPH255nBaMZmMqCVYwq2p8Opp2wbnWuYLuHey5tqNBTfuLqnthCuXxjx/YcQXfqDiZ3/iIp9/8ZBRFT0DzPvb8ec9p9aDcbz6rvJf/dptfud1x7s350xnY559esTexGBMjbVgLAS3q1AzjR4M1nlaL7RqmK/+v/bOZMuu5DrP3444ze2yQVcAqlgmqYYUO9leHlgDNYu2PPHAmnrgV/LIQz+AJ34DD7y0JMuWKYmSKS6JIqlSFVAN+uxuc5qI7UFEnHvyAsgiqxJIsCo+rLMubt9k5n937Nj73x2fnKx4eNRx+3DOP3+74z/+6+v8/rcW1KYFQgPBp7gDvEJCyuf9jx7xX/7rf+OanND3LWeuYNI39LFVrdfo4RnrlNVnQf1cS/74Pr0Ba0K1SieOmRq8rUK9srWctHBU7PF77x6CSSu5qxHVvOS/JIQObImhYOIAKr53x/O9/3AXxOK84ulwwNmZ4cOHDQ9OlQfP1py2wqpxlC4sgeuiYj7f5+Ye3L454+6NmmsLUKMUeAoJOcwhH6mhrdDT8zp+pF1hsBi+cVf5z//pLg6P9z0Pz3p+8I+O//d+z+PThvWmo+9MSHt4lz4oCmPxlWV/CrcmHd99Z8HvfOUmd+/MKG2DkTpkLxVUqhBlawtSvfL39hwxR2xEWUnJz3VOtXa8qz1zWdFYi4rSOULHlvfRNCfzWTmXchMok5ehKZj1Bb4yFOroXcufHy34q+MZ37475/focJRYCSvKqyAL6mWh5bbTx4KhA2pQEzZvjCJUVMCNfcfN/QooQWfDzHSfljrElGPslU4BiDcOUZMylAzD8WI60sjr+XGWoznz4gVrFGsL3tk3vPMvLX/0L7a53mQhIzq0KYRWxjTfKL7ZPsy9BCoQpYufQ0lw9fJSxcmgrxcfXy++wfYbhIKlTPm7zlH3hq/YNYtCsKI473HGRjOFzGdlCC7j73UnhhJDSQeVsDxd8/fLGT/a3KDB05WWuVvjTI1VeFXtwb8IWVAvCR9zjHgbfxFCC6cIcSc6mTB7MBaPjfk7g4bfglQSGrauophu+62F5ECA+DDmeHjuIK+q5vUsddTGGMyDCdOFbBhmFDZ3ZNtVZiHkIsw4s6R4I0NlKmIGpyji6OIKhtxmGLERq/1fM0ZCqZjrhP/1f34A3oF6WrG0WvPjpaeWhluy5rCEyl6F7H+xSE1pQthosgLHR095vHH8Q7PgY71Bayu8KbAqVL3y03uf8H5d8mtf+xq9VFcmbFlQL4kgjqPaHRltOo9FLorCWBqGXXZ5/vxz8ijx3qMrzM75V87w8sK7sOky2UbY5168jO4U2b5/iefN+OzuU12JmELYtivV8T/++E959uCT4FdggmuBU4MzsOxLTtVSNw0L07CHZ1ZaKgOmUkRtsMfR0KjhhzKfNAbRI1LEIi0zDFFMH8D4/8DQVTeYnKiGCov4hXb+9+niX4xP/bUZas1efEtJtxntRw4uWMNWnw+rp1RSJx4fv3idCF5sWNmFZRbWFJytTlk+e8TTxnLP73FkDzguruFtRSUdohYb1zUq4FzDn/35j7h5sMf+tX0wecmfybxxiMKTJ8+498EH1IVlKj19MqGOrtxCSAu0MuGRr3jiO0zXMdWGBY798piqqqmrmslkRmlNbG0tcASPUxMH2gV7GQNSb2t5JYkT54U0CVe67NwXGCMBS/L2vOgOjxEKoeP9dKipTTOqeMHetRDznSbVM8fa6VSiFv+vIqEuOz5v6S290+Asph6aDcdHxxydnnK2WvOoLTiurnNSfZ2+XODKsPKygPUdnVjEeNAaZ0J1x7w5pelb/vJv/5bv//7vXu4vwS9BFtRM5iLE8/jpEa5vMWr46rWaH3/ShjHk2iCEhgrjXLQbDGmaVko2WvDMKdIKdeeYrzom+oQJPZPKMonjTubTKVU9YTKZoli8Wkp0u3u/LegKaaCRkCaSWA7DAoXtSmIcXI4EeefCkSCfL1cilioNDxufY9wTojF1kx49ibR60B68BCOf5emao9NnHB+fcnK65OxszUOZ0pV7nE3fYjO5hsxsHBpssWLj+JmCTgosnlI8nRQYaYAZ8/XH7J3cp/Q9y+UmjBV/LeUuz5MFNZO5CPWUdT04XP3adIPetPzokwYwoZxLXVi24kOlhTdY7xDtg/OBFvSm4NhOODEWMSWlQN031MdrimfPsL7DuI5FXbCYVFSTKZPJJMyYmkyoJrMY4U4QE2ZSDWVQUSS3o5+JkfN50Q359fORbLhfPJPkcyyoxmw7lYaOsxCteudQE30cfLCH7NqGrmtpmpbNZkPbtazWS86WLWs7pZ8e4Krr9NNbbOa/yXJvgul7jE9NL4JoqAwxEpq2nRhq71EJjmSdGArn8YVhvrrPP3v0Nxhp8WKYTCeIjbPhroAsqJnMRYihNIayrGja4Pz/tYXh+ldm/OUHK5atxeAQegCUEkOHl2BmIyhhoqtBNLb70uOloLVzOrOHmBJjCyiEI/UUCnW/pDxtKZ8dI/0Din6NjxN6q6qijkdZhRlTVVlSFCW2KDGFHepfrTEU0YFfJbTCBhGOG4YmipgkIY3VGKnzwsfROL7He0fnFN97vOvpup627+l6R68eW5RoNUcne/jJNfz0LXR6QH/7LXTvBl4t2rTgGnzf431P0fchy5q0XgibrhCN2Q0Fghcf0weWuld8AbeOfsbto38I877EIAa+/c3fipuzV/C7QhbUTOZCQmox9OfXVU3Ttah6rk0M3//WO3zw4BE/+rjlaF2CCKUucXGDyBiiB8PFvTNh5r0LjtmmAGNpqhldUWJNiYilq+eU6qm0odGOlQ/CZHyP8T1swqn4JUY7CjzGNXE2lsZ6Tr+NOEeHDh1HwVYSYxFbIKbAFTXYCi0nSDEJ58saN51AOaGrD5CyRqsFrpxjpMeKYiTNqSopqgniLda1qDbDePKX0amhUENhhN56VKD0FmcLrG6ou2fcefB37LljOmqSj/D3fvt7TCb1lRX1QxbUTOZCUs4wdPW0TGcTmk3InZp+w9dvHfIbd69z73jNX//jJzw6svRFmNmlfRuSiL9QhYIOwwidEaxYiMVkiFJ3Rxhb4UyJs9Nwa2NihGlS/wFi4hTT9LzWDGLpR8v2sHnEkC9NHU7GGNSYMKPLWCqviC1i6GgwhUNSbtMYPCW2CFUm4pdIvF+IOENrdqGKVY9TwUkFtBd+EpUAtCiK9RPUVKAn3Dm6z+3jj5l2T2jKOZ1MwXcU0wXf+843uXbtWqjX9n7otnrdZEHNZC5gcM9Spes6Vo9P2T84wJQVru3wztN6+Nq84t3f/ipHznPvScPP3r/Hk01Hb0tsmsgg5x50+xwEwUvzXfEeb0JkKxrNrm0FKhjtsap4KQCDOgZBBA/eoGricl0QDRGeiA+VBKPI1KFDT3yYWlqGUwDjQDyu9Ih2GDFYMRg3Qa2gJuzcV7IJZWHeYKmG2mJHMJwRDeY0XjzeKNoPQ8hfiqehLaZY9dw+u8f19YfMmhMEx7qsgX2EFueUb/3G1/nKu+8gtg4jg4bhildDFtRM5gLGGz4azWoePngMKLdv36GcVmEDJpYd7RnDt29N+K1b32Td9Zyu1vzDkzUfPXhEqyU9BiupiAkQGx7fK5jY3GAEqy1Gy1jbq6h3eFPEetXyXKmUGuLmlx1sDAVQ04NImjgevGYBTGjtVG9wcWoEEiYYOPrYi28xRrDehD56L3FsdB9GBjnBeIsvQ92sEcHjcHHSqgGshsOkkiwNpiZu1ADipKDShpUpMeK40R5zc3WfsltSaochNFL4mOOt+zAU51vf+jY3b97E2AJNXz7xG8vaK9riJwtqJvPpjEIqr4oxhvVmzXvvvUdd11y7fo1r166x2WyiMUrIi05Ky+xwn7f25/ivv8W66znbtDw8a3l4vGLZ93g1YQOLNFnUYKSgL4IDfchHerwUGIn5VhxoGV6YpHIpSJaJ0QSBZMyYjL/Ex8qANOZbPGkqrSGlN4JDmahDhnHm4fbeEB3MTKgpFR83gGwctWMJ3XzBKB3TI1bxxgYxFsGJUjlH66HulhyuHzNvnjLrVkz6FWpDxUB8RojlY0VZcPv2be7cucNivgijtjWNqNly1V5PWVAzmV8CI4bO9+FUO5q24aOPPuKjDz9ib3+PmzdvsrfYCw5KXYv3Pka5nnldMqsqbu8r8vYhDsOq7Wi856x1PFsrxz2snWLRILZq6LUgzHcN0WwQP4eQivRBMGG+mAgao07ROAYmRnfJOxZSZVWQ3HTf1LslmLBBRRLlELGilkJ8lDkbrA1V40jzkAaw6hFVjBjwoYGh6DdMV6fUm6cU6xPK9oiq31D4BiUMX/TqUWNw3mBUKYuC6XTB7bducf36dSazKUKYWhGyMCnK1u0k3DeALKiZzC+BxqWlRtHQKCjOOY6Pjnny+AnWWg4O9rlx4zqHBwdIXdC3PX3T4roW5zWOefEsqoI9EW7MlK8deqxRvO9Z9xWtF1rnaH3PxgmtWtZS01DFeWNxkoRY4njBWBPqgwCKGaZDDOmBc3nckb9oEk/dOuSjht4KNn4hWIJvg8GF0dxeKKSg8A11s6H2a0rfUvqOyjVUfkPhOoz2ODxGwzM6AacFHUKhCoVlWs+YT2dcv3HA/uEB09kMa0tc3+O9j19M0XQnOgelsto3iSyomcxnIf0xx5lgxpgw88sYvPc8ffqUhw8fYq3hYP8ah4cHXL95nb2DmyHHp9C1Dc06GFWrB+8F14NSMzHKxCiUcRPHFKA9VjoMSo+lV6HXEKs6L/RpWGIURFVzztjb71QbDC2oEoRO44h0oyat/7GdRkHVYE+oLlhIah9EVZuYEojOBPFzSUMfnSrqwtBFWxbYomRalSxmEw4ODtk7uM5kWjOpg8/retPi+o62bRHpt3Wzw8c+6s3SWNHAm6OrWVAzmV+WVFoaa99VGcbVANvprybkFc+WZ6ybNZ88eIAxhr3FnPl8xsHhIYeHB8xn89iVJLje0XUd62ZD04S5Vd75OLcqGImH+WQOA1SpKD95y5htTf5u/2XaCtuaqvjBZFqQYek+9PWLgPrhPSZfgFSl4IDeB5PswWw6GmlXVcV8Pmc+m7GYz1ksFlRVSV3XlHWJQWjbdniPZ2dLvA/Rv4ljeSRu3g1eA6nii21oGrxT4U2R1CyomcwrxkTzEFsE4dm0LW3XcXK25P79jyjKgroqqeqa6XTC/v4Be/MFd2/foaqqQb8B0OC72vWOtuvou46u6+n7Lh5bJ/yR9sX/65CyCM1QBon5xzByxAxPNLS1xgkCVV1RFiV1XTGpJ1RVyWQyZTapKYoCWxRYG6YOlGU51O6mTaI0bcA5F1z74+vcXh8j5Nf3Y3klZEHNZF4x3nuKsgj1mLH9NOVhbRG8ZZ1zNE1D17acnS1DqZIxFIWlLCuqIoxFqcqK2XzGZFIxm9RMDvYoq5KqrIJxdxw7EmpTt69BYsE+yDDyxJjz41SMhLB7kFhhawyuKXcZ6nH7vqeLbadNu8E30XzQpAqCMLYkjUCpqmCnF97387vxGqNijbf5VSULaibzijHGoF6Hv7aQ3wQraXaSGUaIh/xn6FQK+UOLV0PXe5wHrx1NdwKxbCg+QNj1jjOdwkVxH99sl8dWtx1EQ9tpLANDJM6FSmJstuYo41lRJizx022smGHWlLXhfZg4eSJM2Q251WAfJQwL9pFonhPXX2ExhSyomcyrYSenKmOhi+IXLFMYJT23GDRIkkqsLT2/oSTJTYool6kO1Y8FNT53vJ2XMD03uaMmpz9zzirQx9ZVHez7DKE436YiK41jbAiF+kK4zmi8LuY7xwPKVR1iCnDKTnAar4+JjRd8Fr9KXN0gyUwmk/mCkQU1k8lkLoksqJlMJnNJZEHNZD6FX/1inszrIgtqJvMp+FgA/yk+0Zmr5g34+WRBzWQ+hbRjPvS4ZzIvIQtqJvMpTCaToW1T34QwKPNi5OqbArKgZjIX4DDcvHGd/cUcNYLxBBd9XPB7ygHrlaBi6IzFxO6t3ijWC+Wioo8DE6+CLKiZzAXEviK+/4d/GOZEiUQnpQIjhsLniPUqML5j6jYYQKVk5jx7s5q9asFV9itlQc1kLkCio/1bt2/x/T/4tyx1a/CsTofO98xrxhharWhkQuWXPDYHLG5eh95xdQNQsqBmMhfiBsHs2Lt+h5+uaz5oKloMxoZZ8ZnXj0coradtzvjvDw75yTpGpTaPQMlk3lgsgHiUEjWOtUw56YTHfc9NdRwWDjHgXehdL3xHi4SZSrEf32hwlPLDTKjIl1iMx4Yofhh8BSqWc/VP4oMjqljEK3GyCsvThr9a1fy0uUlHwVsUGAUXpxReVZSaBTWTuYDg0emjxV6PQ+iNcEzFSdNSrj3XbMNNUaS0LMsC23tMmAqFFxsnfCoFglWJNnWKXPFAudfJePddhHO2gdYHs2pFsdogYsLnRoFVpVCPigaT7mXPT9cL7psDGmYYsQgN1gdnbRvHwVwVWVAzmQsI/pzQtx3/9wc/QNRQ+DAwtDMlZ85wtjZ8KBv21w03xDOplNIUMMy9NxivIIq3YfonEEdEf/FR1eHYvQzAGEW9oReDFYtBwHu8X3O8XHG03PB+M+VBeYczapwtMeGrDeM9rih474N7vD9b8NV37oYBgVdEFtRM5gLC4Dvhf/7xn/D44w8xGBojqCEuUxtUenqd8dRXPMZRdR1T7diThkWpVNWUSV1TmzixM3mNRkf9MPDviyutL6oNTRGqiNCoAdegTcOzszOO1x1PlxseuQnPpm+zmXwVX0UTbCMY3WD8DGc9gmIcmOaUP/mzH3Pt3/875osZVq5m0Z8FNZO5EOX4+IR/ev8Daiu8NTXc3zh6tVhX4LXAaYHSoNqBGBoMGyqe9CV0yt7qlImsmOGZV8K8rqnrmno6ZTKZYqsapx6JpVhhFHTyOg1FWucbCnQYsaTxVqRT2d7mhX1dur3N9hG3g++2jx+HZqX/yTZaP/864m2E7ZHmQKVlvRGsDVNKvfe0XcvyZMnx0TEnZ2ecnZzx6KzhMVOa2S3O5v8MP68gzpYyGl6jWBDvwe7hpA076lJgvGPv9GO02/CXP/wb/uD3f/eX/SFfGllQM5mLEOHhJw/xrgcVvnsAqwYeHCtq2jBpVNaAoLbAe4/RZOAcBOeMBUtT8MxYrELRCMWmo3rylKlfMS1gUU2YTKdMJxOm0ymTaU09W6D1HEfBBB9SBoAxRZgs6j1GwOCjabMl7H+HgX9pAkBSX4meBEFmg711iB7j6NYQdofLo5SHWwXvfRENj2GC4HtjKazFKxgN16kv8QheW9rlmqbZ0K1blqsVZ+uG4+WG1WrJuliwWbxFMzlgOfl13KxExVBqH55fSS7aqAgWD84CJU57DFA4xVvh7pP/zaQ7walyenIcctNXFPFnQc1kLkBVqes6/B+loud3btX8jVV+/iGoUYwarIDr4xjpnW2R0eBjMIZeLH1R082vs7RhAmihLbW2lGdrOHpK0bcY11FJz7y0mGpBWYURzHVdM6stdV1jqym2mlCWNUXhqMqa0lpEBTUuRnFbV/+wIbSNb9NQEhGDWNAi3oY0Z8qCV9q+w7sN3gt936B9S9+1rNqerutoe0/rHNot2TQb1r1Fqn3s4pDu4C52/+u0b92iNRN6qehdh+87TNfj3QnGKUiBt+c/MwAnIfQVcfRFz8RZNsWMSs/4tY/+hHm7xhGmIMym0yttP82CmslcgIhgrGVST9hsNmHHHuVf3Znx69dq/vTHj3jqe7wt8Nagvg+bKuPH8AaMB1PQSxBQG6M667oQAxZTGrvHWgzWlEhZUFlLY+DUOaz2lOKxvkfbDdXpEaZ7hnUbrNuAdxgshjAjyojiimmYRGoEawyYIs6KMohJ00+386eteAwO1TivSgVLgxeDGBt33wWqGb5aQDljtXiLop6h0zlazeiqBVrN0XKKK2oKWzHDY4sC73qk31D2Pfge50PTROnDF5YH/HOfHlTe40Ro7YSpg14cX3/01+yfvocR6I3DUOKd4xvf/OYr/o24mCyomcynYIyhaRqKoqDrHSUe6VpmpfBHv32DB+11/vq9x3x8tIRYLrXzACge0Y5CFZUSpMQreGPCcDy6kHM0BjWewjdgKpy3SFGCTPCFDcJmbIjaYkGXxsF6wWPAY+gZok8TluJGwZnz5UrpvXkRJA7oM1KAMWAtYgqMALZCTQm2RMsyinYc5KdBpLFxgJ+EKgb1LdY7RFo6W6FiwhLeQI+CC6+vNw4Rizc+1I9qzOSOVDWUnhVMulPunvwTi+X7VDgEwXqhsTWqju9+97vM5/NX/NtwMVlQM5kLCeYbqp71pmU2m9K2HtRSeqEXuDk1/Jtv3GLZ3+bDpyv+9pNHLJfrMOlULKIthgKvBkcRRDOVDEGclGfjeUXUgRSoEgQtbRCpRE0KDbHDMj7mQEUELwaVOqYQw4ZQykOKSNyTGolq3AQTazBiscaG24jBROEWE64TAaOhJlfUhsF6oqh4wGDiV0koFVPEp1RCioKjzPsQSSsdhfM402F9eE3eWIx2eFMFEfUr5psnXN98wnzzFIun0wIVG0YKCtSF4Tvf+Q7Xr18PHRZXSBbUTOYXQFXp+56nT56yt7+PtRbvHV4V3zvEWOa15xt3a37zrXfZtMpHJyt++ugxj08tvVNEQ/G58YqxYfce9YgBE8VSvIZoD4AggOYzd4jHXGlKmRIrvcZr6riBky7Xy9rQ0bBxFSamKoLBaYiovTRYWpAeZy3aWbw4xCgWxarn+vI+NzYfU/cbgv9MF6oE1Awfjwi8++67vPvuVyjL6oXTVF83WVAzmU8hjVRGg3v/40ePMcZw8+ZNqsLSdQ1eTSh7wtNbz3Rm+fV6n9+6fY2VazletTxe9nxytOKk8bRecV7BWLwWYemPwZgQpW49AoRdDfy8yPg9hXc4XH55z7AttTKAVY+ox/sej6M1U7zrKPtjbL9i1h9x0D1l2i4p/QZDEnahiFUM3ofa3bouefvtt3n77tuUVYUx42e9WrKgZjIXoDqaKRVbJhVlvVnzs5//jL3FHjduXmdaG8DQdJ7CGXw4S689tRjemk+4vSd89+4BnXMsO8dp6zjeOE7WHWe9p1Whk5LeC4WASphT/yrKgIxEoY52hJeLblMMJnRAGd9juhW2X1MtH7NYP6Hqjyj6htpv8GpQbNi8Q0KdhBLbdA3TyYTD/T3efucu164dgli8c4j4GGRfpcfUliyomcwFxCBpYBytWmNZrZYc/+MxVVlx7do1rt+4TlUWQwG7cz5UcYrBa1jiWxH2qoL9quQr+2EH3nlH42DdQ+uUsw7WTll62Cg4McFwRcJjKDbsuGss/k8CGaPNUHBfICrbJX2qn9LYLmC22QAZosnxG9bhXIphNb0XkVCbigAG63uMQklDoR21W1O7NaVrqPsVhdtQdCusa1EJFQMaP1xHEb8vFHXg1VEWBdPZlIODfe7cvsN8PqeqKrquo3c+ln9FrwXZfuFdNVlQM5nPibWWruv45MEnfPjhh0wmFfsH+9y+fYeDgwNUlfVqTdf3Ie/qY9QroF7pNZgE1sYzKRWpFJ0WMSJ2oB2993gsPZbOQ0tJh9B5Q6eGFksrQq+WXm3Y/Zd2W8ifVFNGraA+bVQJxhswFjU2ymQQTKsW6xpKUaz3TLqOAk/lHaX2lH4T8p50UVR9WK7rdvOrT731auhlipEeH2r28YQqhLquqMqKw2vXuH37DtNpTV1PcK6n73u8Kk0bjFPe5DbdLKiZzOdFNURYCrawtF3PwweP+fjjBxRFwXw+49atm9y5fYfZfI6qp21bVqsVXdfhvYbaTwzeSOi2imVBISiVUEOKUAGVFfa1CZ1JRcxXxpeSIkojBsWgsnOlEou6tq2pSWBVFel3EgCa7hqiYGfSfcN1Pak6IQW/hl41Fg8Y1DssfRRzgzEGKyX1ZMLh4T63qqfT+wAADDlJREFUbt3i8PAQa0PpV9M0tG2Lc471aoUYM0SvIjakKs7lf98ssqBmMp8b2fbapxb4YRUqbDYN9+99xMcfBYEtq4K9xYJbt27x9ttvM51MwigPlPV6zWq1YrVuabsubFxpbBZVh6gLESA21HbGOA9CyVRoPVUcPgh9ao/avtSBrUOAB5HQMuuJlQVBuJzVmKMM4l53ihpwxuJFKeIdPCHCtRLLpvDUdc1ib4/r1w+5fesms0mNNeBtjaB0bTtEoGfLs/DyhhxLbJ8l5UjTJ3S+auFNIwtqJvMpDJtSF5XlxCWuEm3pooNU+D8YGwRCUXzvOT0942y95t79DymMxViLMYbDa4fcuH6dd75yk8lkQmFsiN4ssVRLWa9XdE3HZtPQtS1t27JpmrA0jt1Hqs+PZ5HhtbEjSDFStQI2XCEiMcoNnVcC2KJgOp0Gr4G6Zr5YsLc3ZzabMZ1Oh+dNeO9xvQMJPgBVVYXLnMM7h/ce7zW8ZlOgPoinidv2yWTl3PjuC6JTUa48cs2CmslcgFelrEqcc5/rj/V5LZYXXKicnJywWq4wH4XlcWGDoBojVHXFbDZjMpkwnUw5PDykLEusTaJrKGyBsQYjJpwaE65DsLFTygz2gRLFS84FsapB5FL7aRJJ55PRtsdrEMa+b1kul5ycnIR3NerEKooCay2FLSmr4rWI3VjQr4IsqJnMBRgJS3ZrLU3bvpon0XMn5y5PAaWq0Pee5dmas7NV7KCKEVmMhFM7KBBFU88JXOqS3209HYtrOrbCG3Kb1gRRVxMiVxEZhD6JtrEWowzXa/L9G+Vov+hkQc1kXkIQgFiS9Co3Qkb51iFtMLocDSNUkst9EtFwp3gvA+DxPlj0eedjnakOy+XxBtRw3kRLPzFYq6GxwIRlvqpgjMdIbHUVyzDXM4lkfCRNn5eY8aOf+5J4HRFqSCP48+/zNaYBsqBmMpyPntL/g4A5nOuHy17V0BKN/7x6TGxRJdWdMvQeDfWX5/K6UWxle8OQf9wdBRLLpkYKHrKUu5enWoH0mYwEXKKgD9UEg1hv85ypEnb3s3rVEWoS9a7rzkXaY161uGZBzWQiaUMn5Q+dczjX0XUd8OrEFIibWlsGydLtrve5/++Q9HAotRJJbV7nbn9+P0qGogRGp9urzyVWn3++0f9F06bQyzfgX0ek6JyjaZqYjjBDOdZYXF/l68iCmvlSM96AScvFtBPd9z2969hsNunW2/KozJuHQN/3LJdLyrIcNsXssLFnzonrqxDWLKiZLyXjSZxJUPu+H4TUOUfbtrRdw2q1Dve54teceTnJ7qDve9brNXVdU5blcIyFNWzgPS+qlyGwWVAzXzrGYupiPaRzjq7rBiHtui527TRDhHrVNY6ZT6fve87Ozuj7nrquwyqj76mqiqIoUFWsDd1du6mAyyALauZLw3gWfFrap2g0CWobC+XbtqVpgpiuVisY+tOvbuZ75uUYI+DDz/DZs2csFotBVMdfoOOjKIqhIsBE0+/PK65ZUDNfCs7v3G8j03G+tOs6+r4fxHS9XrNer2masOT36nMO9Q3Fe08ZTWratmW9Xm/rb832S3D8ezCuvR2XWn0eUc2CmvnSsJszHUep6UjL/RSlbjaboUsqL/nfZMLP5sGDB2w2G6y1lGX53E5/Og9bob3M3f+8fsl8aditNU2iOj6/K7QpkrWFRb1/taVTmc+MiHD//n3u3btH13XDamNcuTE+4Hy0mk7HaaHPQhbUzBeeX+QPZHybcWdUilpKazDiUd+h3g3O/TIuvDxXnJmF97My/CzOtVklw5dkHRgbHmKL689/+hP+4i/+IvgfFK/HN+BF5CV/5gvPWCB19If4oj72VK9YFMW5o6oqJpMJfdfj+h6N0z+HaOecU37m8zJ8WbEtiQpOVKnLyyNiOD095oc//CGPHjxksVhQliUi8tI61F2/Aji/5P+8qZ0sqJkvFeM/mrGIjrujiqKgLMth9398eB82pk5PT+n6dlSCo6jXsTNq5jMyCFps6xIJkw2stTFqVU5PTvjJT37Cz3/+c6y1LBYL6roerASrqhqOJK7p9EXCelkRbRbUzJeCXYclCNFl2rAY32YstmMBTu5KNtriVdWao5MT+j7MgrfWvrHGx79KaFTSwSVAtoMRHz58yE/+7u/56KP7FEXBYrFgb2+P2WzGfD5nPp9vLQ6nU+q6Pies1tohct111oLPvzGVBTXzpeFFtnXGGPq+f05Ex39wadmfum7qekJV1ZydnVFVFcvlMrjsr5ahC8eWiInjOlKTvsZSnZEDU5rdpICR5GwVot2XkeLfN25zbBRUDn4BKc0SbQg8YRqqAfrxRpAYRDweDT6uEmpCvSqbszMeP37EvQ/e5/79+xwdHXFwcHBORBeLBbPZbIhOJ5MJk8mEqqqGjqnxz3C88z+OTnOnVCbzS5L+gC4q8DbG4JwbSm/SH2aKetIxm81YrVbM5/MoqCvW6zXL5ZLNaoX3SlGUlHVNXdfYokTjuJGxK1TA4H3KEZqt8//u608iHI1PrlpYhx1yr2B1eH2wdX86L1h67jJj4ohpFOcd62bFkydPePbsGe+99x5HR0csl0smkwl7e3u88847TCaTQUjTzyFFpUlAJ5PJuS/BcW58N3+eO6Uymc/JWFjHQppaE5OgpuVi13XUdT38Ae/t7bHZbAYBTWJ6dnbGplmzWTesViuWyyXr5ZKjp08RkfAHX9XM53P29vfjHzggwZh5EJxBlHZKe1LHlsiViylsX8dgKM1odEmyBvSKIQydRgSNn/PR0RGPHj3iyZMnbDYb7t27x+PHj4cW4LR8v3btGnVdD+dTZJqW9Cka3c2ZJkHddZxKP+tX8nnol8FGO5P5FHbbUrf2fdsjdVOlo2kaui64UY2P5XI5iO16tWa9WZ+7vmkamqal77tBtK211HXN/v4++/v7zPf2qet6iKgEGzdUgiiZ5HU6BLvnI9Yh6tq9bOe8EqLi5MpvdzZshiOmQWR02XjZXBYFEi9Lh/eepmk4Pjri6bMnnJycDF1oSUyXy+VgVpIizPEqIC3h03J+Pp8PEehYQNNnuGuE8qJc+KssqcqCmsnsMBZX59xQ7J92+VPB/9hMJY0/Hv9/s96waTajFtZmENT1ev3c7dPjAltRGOYyFVhrqOqa+WzGdDqnjqmEJCymsIPQShqFkupl2YrpsATnfNVD2mxLY02ej+gEH/vlu66na9vhy6JpWrwPn1XfBUPu3vVsNg2r1ZJnz56d2wRMQphEdLyJtHuaxHMsokk8d/OiYx9Udt7f6yALaibzEnYneI7bVscuVWNx3Y1i07HZbIbTsbCm093bpfbXsXlLeu7tEjZ5fBLn1283085trImE64kCY8xWeAfBgbCjzpD62P0sUs1tSpWkVt3xKZzf8EsCWBTFIIjjCDMJ6vjYjTzHwjluKR3nQ1+2nH/dBf5ZUDOZX4AXtSkC5yLX8bHrYpXENgnP2Ihl9xh7CbzoPrviPW6XfVFLbTrdfe3w4qL23fKx8W3HwjVMNR3lK8fR41hIU3NEEsiUzkjnx5tHu0X5qXY0fZGMl/K772H3fb1usqBmMp+RF3kD7Eaxu85WY3ercW429Z0nsUzimY6XXfaiPO9YXHdPx697dwd+99jNo+4uqcedZLvnx4X06fpxfnN8n90d+N3xJePXc9llTpdNFtRM5hJ5mcgCz0WQY+Ebi29aTu9GvOONsl2BHud5XySkL4tQx4yFK53f7Sh6UQvnWGxflHLYPX2RWL9M0MevLb32N1FIE1lQM5lXyMv+vF7kcPSyYxxdvmhp/2n3Hz/Pi17X7lL5oqj1ZRHj7hL8ZSIJ2xzr+Ll3RfJNFs2LyIKaybwhvGgjKJ2+KPJ90fmXPcbLzo95kYi9TPguEuEXXX/Rc3yRyIKayfwK84v8+f6yf+Jj0Uv3fZkQ/iIC+WmP8UUiC2om8wXjTc8zfpHJBtOZzBeMLKZXRxbUTCaTuSSyoGYymcwlkQU1k8lkLoksqJlMJnNJZEHNZDKZSyILaiaTyVwSWVAzmUzmksiCmslkMpdEFtRMJpO5JLKgZjKZzCWRBTWTyWQuiSyomUwmc0lkQc1kMplLIgtqJpPJXBJZUDOZTOaSyIKayWQyl0QW1Ewmk7kksqBmMpnMJZEFNZPJZC6J/w9PfHYWNNfYHgAAAABJRU5ErkJggg==;" parent="1" vertex="1">
          <mxGeometry x="-2570.99" y="-4532.999999999999" width="147.98" height="131" as="geometry" />
        </mxCell>
        <mxCell id="5GXkYhnuSkyJWKg_0dOM-30" value="Maintain" style="text;html=1;align=center;verticalAlign=middle;resizable=0;points=[];autosize=1;strokeColor=none;fillColor=none;" parent="1" vertex="1">
          <mxGeometry x="-2583" y="-4592.999999999999" width="70" height="30" as="geometry" />
        </mxCell>
        <mxCell id="5GXkYhnuSkyJWKg_0dOM-35" value="" style="edgeStyle=orthogonalEdgeStyle;rounded=0;orthogonalLoop=1;jettySize=auto;html=1;" parent="1" source="5GXkYhnuSkyJWKg_0dOM-33" target="5GXkYhnuSkyJWKg_0dOM-34" edge="1">
          <mxGeometry relative="1" as="geometry" />
        </mxCell>
        <mxCell id="5GXkYhnuSkyJWKg_0dOM-33" value="Client Interface" style="rounded=0;whiteSpace=wrap;html=1;" parent="1" vertex="1">
          <mxGeometry x="-2828" y="-4469.8099999999995" width="120" height="60" as="geometry" />
        </mxCell>
        <mxCell id="5GXkYhnuSkyJWKg_0dOM-36" value="" style="edgeStyle=orthogonalEdgeStyle;rounded=0;orthogonalLoop=1;jettySize=auto;html=1;" parent="1" source="5GXkYhnuSkyJWKg_0dOM-34" target="5GXkYhnuSkyJWKg_0dOM-12" edge="1">
          <mxGeometry relative="1" as="geometry" />
        </mxCell>
        <mxCell id="5GXkYhnuSkyJWKg_0dOM-34" value="Transaction&lt;br&gt;Record&amp;nbsp;" style="rounded=0;whiteSpace=wrap;html=1;" parent="1" vertex="1">
          <mxGeometry x="-2828" y="-4559.8099999999995" width="120" height="60" as="geometry" />
        </mxCell>
        <mxCell id="5GXkYhnuSkyJWKg_0dOM-46" value="Storage &lt;br&gt;Provider" style="text;html=1;align=center;verticalAlign=middle;resizable=0;points=[];autosize=1;strokeColor=none;fillColor=none;" parent="1" vertex="1">
          <mxGeometry x="-2640.99" y="-4475.999999999999" width="70" height="40" as="geometry" />
        </mxCell>
        <mxCell id="myLRy50kYtt4ydvngu8z-36" value="" style="edgeStyle=orthogonalEdgeStyle;rounded=0;orthogonalLoop=1;jettySize=auto;html=1;fontSize=35;fontColor=#000000;" parent="1" source="myLRy50kYtt4ydvngu8z-23" target="5GXkYhnuSkyJWKg_0dOM-23" edge="1">
          <mxGeometry relative="1" as="geometry" />
        </mxCell>
        <mxCell id="myLRy50kYtt4ydvngu8z-23" value="" style="shape=image;verticalLabelPosition=bottom;labelBackgroundColor=default;verticalAlign=top;aspect=fixed;imageAspect=0;image=https://bytesoft.vn/uploads/4/blockchain-data-structure-and-how-blockchain-works-1.jpg;clipPath=inset(19.33% 6.33% 42.89% 4.33%);strokeOpacity=0;" parent="1" vertex="1">
          <mxGeometry x="-2652" y="-4728.81" width="320" height="101.4969032161779" as="geometry" />
        </mxCell>
        <mxCell id="myLRy50kYtt4ydvngu8z-24" value="" style="shape=image;verticalLabelPosition=bottom;labelBackgroundColor=default;verticalAlign=top;aspect=fixed;imageAspect=0;image=https://bytesoft.vn/uploads/4/blockchain-data-structure-and-how-blockchain-works-1.jpg;clipPath=inset(28.67% 41% 42.44% 38.67%);imageBackground=default;noLabel=0;" parent="1" vertex="1">
          <mxGeometry x="-2289" y="-4712" width="76.42" height="81.43" as="geometry" />
        </mxCell>
        <mxCell id="myLRy50kYtt4ydvngu8z-29" value="" style="rhombus;whiteSpace=wrap;html=1;shadow=0;sketch=0;fillStyle=auto;fontSize=24;fillColor=#006600;strokeColor=none;" parent="1" vertex="1">
          <mxGeometry x="-2284.29" y="-4705.57" width="67" height="31.38" as="geometry" />
        </mxCell>
        <mxCell id="myLRy50kYtt4ydvngu8z-25" value="&lt;font style=&quot;font-size: 15px;&quot; color=&quot;#ffffff&quot;&gt;n&lt;/font&gt;" style="text;html=1;align=center;verticalAlign=middle;resizable=0;points=[];autosize=1;fontSize=24;strokeColor=none;fillColor=none;strokeOpacity=0;fillOpacity=0;" parent="1" vertex="1">
          <mxGeometry x="-2265.79" y="-4713" width="27" height="42" as="geometry" />
        </mxCell>
        <mxCell id="myLRy50kYtt4ydvngu8z-31" value="&lt;font style=&quot;font-size: 35px;&quot; color=&quot;#000000&quot;&gt;...&lt;/font&gt;" style="text;html=1;align=center;verticalAlign=middle;resizable=0;points=[];autosize=1;strokeColor=none;fillColor=none;fontSize=15;fontColor=#FFFFFF;" parent="1" vertex="1">
          <mxGeometry x="-2337" y="-4677" width="48" height="54" as="geometry" />
        </mxCell>
        <mxCell id="myLRy50kYtt4ydvngu8z-35" value="" style="edgeStyle=orthogonalEdgeStyle;rounded=0;orthogonalLoop=1;jettySize=auto;html=1;fontSize=35;fontColor=#000000;" parent="1" source="myLRy50kYtt4ydvngu8z-33" target="myLRy50kYtt4ydvngu8z-23" edge="1">
          <mxGeometry relative="1" as="geometry" />
        </mxCell>
        <mxCell id="myLRy50kYtt4ydvngu8z-33" value="" style="shape=image;verticalLabelPosition=bottom;labelBackgroundColor=default;verticalAlign=top;aspect=fixed;imageAspect=0;image=data:image/png,iVBORw0KGgoAAAANSUhEUgAAAOEAAADhCAMAAAAJbSJIAAAAkFBMVEX3kxr////3jQD3jwD3jAD3kRL3kA3///33kQD//Pf+8uX/+/b/+fL2iQD+7dz//fr+9er70KX96dX95c37ypv5tGz82LT4oD381K783L36vH73lyT5qlX6v4X4nDH83sH6uHT4p1D4njj5r2L6xI74oUb95ND6xpX5q1z6won3mSr807H4nTz5rWb4o0r84Mdk1Y3cAAAP+klEQVR4nN2dCZeqOBOGIQvSNCru+67t0nfa///vPhZFggmEVKGe7z1zzsz0zLV5JJWkKlUVy/5/l/XuB6hdryJs+F6r2/35uV6vPz8/3ZYX+I3X/ObaCb3eqr+eH7Yzy6WEMBb+xQihfHbZHnaLzqrr1/wANRI2usPFnxNiEYeHsnIKfxT/Rzo7HYet+h6jHsK2P9n/he+KPnFJFIE23V2/V8/brIEwuC4OhGnBZeQQ5p763W/0x8Em9Dqnmd6rk1KS5WCC/CpRCf3On0scM7qbuEOs07CN+FB4hF/DvyYxfHn5V8l2K7S1BIuwNeUMBe8GyWZHD+fJUAjbww2heHixOKGnFcbDIRD6/QvO6MzLIaMxfLCCCf2FWw9fJE6s49d7Cf0z+vDMidA+bI0EEfr78EuuXWTWgTBCCDuzF/BZ0VhdDt9BeF3WZ3/PjH/dVxN6c8zlT4OxOTDczRkS9ilsc2Yg6poNVSPC7h97NV8kdjJxI00Iz6a+A1SO038Fobd9zQwqFfmrbI2VCTuvnWHyctxJvYT+7i0WmBWZVtvHVSPsXmreo2khboPaCMevW+OL5PAqblUFwsb67SP0Js6OdRD68zfOoXmxgbbjqE3oLT/ABB8iG11/Q5ewZ32ECT5Et5pxHE3Cybu2MWo5lp67oUc4/CATTMVpD42w84mAkdd4RSLsfMoqkRenGgujBuGHvsFIOojlhONPfYOxSKktlhJ+5CTzEKdlM2oZ4eSzAaOj5BLHv4Sw+1EbGan4pdjVKCb0cHcyDiHP5/nwTx0VHjcWEvpb1Iga63X780uUuID5qeFsszMlbMxxxyiJv7Vuf3dhwJPinNjCkHCKO8vweTo2QsoZ5kezsRHhEHkhJEIocID6Fql6QlUTdrHXCZZduRrb1Bgpgl3yizLKqCT0l9iznpt1y1upiTudHcLsQ5WzjZJwgP0KHeEZxveP55vYLv+bAWcfpgqHqwixjTBvhus7Dr0Flb67nZ0LiTYzhSkqCD38zZpghl+pGbKsj9cFmAa/yINTCsIR+tZDnAse36CbjSgFkF9LphUIj/ivUGWGp+yPJyDbIFJnUUrYquH4U2WG++yPF6BNFF/KIoxSwrk5oXKYEWE1vKRmmPVgG38w4yBnTUJIXGbJ5bmXOTNspv8h6/r4UONgEndYQhi4xr+BH2xvMj24z5SPTWmkhxkKPwa723ypRbg2NwZnHX1AI6IkIuULzDAS62gQtgBjlKTpEo1gslg2H5RixCgdJWLEcwteo7j1tD99JoRYuyvuK4LJ9L7lpNnlWGWGTfUn64o8uYpPhJDYGv/39H3ZreH6Hydkk/3ZwwwP2R+jRL2e/Kg8YRsyUhIzfJa3mv5m/31Qlxla+Z2FhHAM+R6JZtbSRboptXH8NZJbMXKE7QtoZ6iXs9RN0wGa2ShZgBMVck7ib8sRgs4o+EwL0PbWt30BH2V/jBV8boqBfpGwDRonKjOUQV7PmxlpCmY4RYrsRT61khB2zKRrhjcFP3vh2z5geWzi2isSzkC/pFkpkycvD80lFadTgRBoCRxUA7LC80mFNVEgBDovFuODjnH1GWI+Es16+1nCHtzUHcJmg45RveR1gFi4kbGXLCHAqciIO4QeOibVZ0F/xHCiCyTjYmQIfbzoEydbs7rX7q6Jwci3UkLUjATuGk6s3poiDKVMcCRDiLYexXp2Y7QZp/BCAGcgIYR4vjJRU8JwrG7Az8LSROIHIYrvklETUoE+doGvkaQnig9C8/iTXEwr60wl/wTcfWyeCHvYRzFN+YleS7ecAHgC7dw3WCkh9iDlF/mDz9z5eeXpZPh2QBmf6TBNCUGur0RUPpeGbi6nzD2sJ+WryQrypaeR2DvhD/ZZDJFXftz21+HGh//1y3bqoIMaHoiEe+zkJya3t4yby0lzNCne3UHOF9hQJNwgD1IxTviQuK3gzFoUvsgdNP6eEuK5nzcpzPD59xB3UeBvAY5M+eUrS4iegsgKzVAQuRQUa/XNH+x2EHUjxIoCpVJsvKW/hzPZuV8i3zywcjsMSghBkW6Z+J90xVMdgTJ17p35On0LnCaEAfYgpfKsAeXRpDr3DpDh6mYI0c1QnjRQsMAxVUp6w3yYJhk2CSH6aqgIu52Vv4cr02B3xl4G+X0QQoNsealWw4I0HaaqDjmaG+LgQfgiM/QLtiiKP2Lbv8YPl5zqx4TY7r1qU1pk7mLOguYfKhH9uhOiTzRUvhoWzfxKQwQ8XHyUGBMCNg5SqXzDIg9NSQiI9sdDKSY0n67kUmxKCzMRnP8Uo9TcDpPnsMq+WxMZmKHqW4HMpckhVETYxl4NFSGawg2YspYQMMDiRSsi9LBDNJLcq0hFm1++VK34oKRaPyHsIU80dCrddhf6oOQ5XUvjT5Up2lpFhNiLRXGIRir6pwC0r6D0l25CiL1YEPlqeFS3/KRLZRQV5LlGDoAF/ZBn8YM8GtrwJ+eRrGsrZycloA9L8BknhMjLoXKHGT/xZDFyKKFJ492o0y4ho4IoBjDz+5gQznGXQ4UZZl5ma7Jfzw/L2Wy2POyKz8RhMcDoy44IcQ8OLVczJeMrCIKyw3DYK4wjihHhP1RClRkaCZjMF20FQ8Iv3Bouqp/7VSpoBWQUjLJAATuZSs1QX+Diq8jpDAkD1HLOx8EdWFfwoW0U1EQnVG1Kq2sI7xjDD+2YEAMsVYUUzEI1Fgg7LT76igg9+CdlhGSG1wvGVrIWQkUKZqUuct/DEU5nvzpGKVcVNO6OP5pZUsOdhZXCdyfEnGlUkVLiEGZtFiuNiTaYorVmvM2lsO17TopM6MTL45Tw7b48z6Z1QPLn+AafkJVFSjllZDcsS7Pd44xTnuxp2oi7Nr6Vb0rFzb1D3GmvePc6QWmCctuXYu68VeeGz/8jG/ULZ54Wxl7y7lsgnjwVmqEoTqxzUQZYy4U/1t0/POH5+NUOLKgywhYJIe08qhyLCNdohNH6I5PSU2ejAg8f3oQrSlaICPFOgKse30ftnQsKbQA15YmiLWRECKrIEz9R/rirIj9PUrp7Vwv6YPd4KV61iisfc8WDpKBBELQ+Iup0FhGitSyTVclGKpms1WWLwMNpPrudW/hYhArf8LtkjDgb5UuELYrxNx67AmhlcQZmGEmZhwFtlDG/E2L1aiFyz6F0rlbHBa6gYfo4A0Y6uFBVyWrse1WRYQ8W1P+9ExovF/ziZE5ayF76lF/ljQSYihDWCyQuJo0JjSsRiOcN1weaUNKlPFRRaoYhocox/jZ8sETUvxN+G7ZrSNKq2t5wumWh16fwFdTJbKkUSeHAeHwSUUnCKoaT8qMspuF3lb6QxjzGVaP0G+KdJ/XACaHZ3jtXFq6QRqo2V55xg5bqxHNJCM1KD/Wq0zUO4onychXQXJoMsYTQaHd0T4YvkYYZUmUETmOWUos0HoTfJgFFoncFQ/kpbsF5HMTtuSW53gK4/xkYoiLlIievNBgR748Vgjjnt9YwN0KDhJNMIWohYVlfXe4UBFAh28nbbvdGaNCsVNY5TKrvW19d+dOSS0EcA+Q98e8s4Vflggu9peKuuK/ucy4NJ/RYFByGlJffu2PcD1IqN71VlP0UqBFM+nOr2WTkJsY2w+KKUkiuyX0JuhNWzW1TBbfLFXRXv51+vzMsP6UBFbrcIwd3wqpFYs4U/37pJ0ES7tKkl/S4r2piVHQlek13hd/VgFRjpa5cSlg9/OoQMtsce9C7XtUCZYWmdyakhBp+qkScEHo4lpwjGaoByUZ7pIQ8DqWNTy+iE8HwXaLbJShfiKZbygchrHCaMn46djHtEuQaWs10on4QtgGfFyu0y0tJLmUVrUGt4x6d4DKpEwhdFbjTVBe8VhMsjvho/JElBJ+DRFJWSlZUC/Z1u4+wSDb9BSNXmGYnHPMpNoBlT2RP+bKECNcCifvx1bzfNVouPeDlKNn+l1lCWOPLWGJD0mm4Wi5348qTT9eCATrZWkYhSQteeCGcscS16VEyvjWolHN6hCbTCHXWAiH8mI1nV8S0ISlX5BFJ1QMnRIlNQ8VEO+gRTa49933C109ub/dO8KQ2Ihwqi4QBMLGaCqthusCKCQzj80QeIP/q7bcIlwhx8SQrlywJfIliEWEazhezak+MUOsyX4yHq54XjurGd+C1esPzxpI3rK/8EGLqQ44Q2stXaM+dDgihxsSPU084p1EYgzUjhX+X1UOZKZ/hmk94BWVXi+cPqXsnmiF6U7GcSC61I08IKmjUMkNAXa+OnopRn5KW94CXKPb7mMnNELmO7OkZ8sdFT4RfgAQPKu+SL9SYNOq9UPH5oO458dzctc52Dc2aoVBjUrMZPt/aKUmtN45wiWY4fYcZSg5TJITmeQuCGW7lZohc7JiTZHsoK48wrYljWU/pMSkLNSZftb5C2dVkMkLDGJC44U0THsUVGLv2X3wCWeMfaYmLYSiWL6dj7/4eVWZYJ6H05lx5EY9hM79oJzZaD1vRFibNuBQXKOzuhVlJr3tSEPqAC5Ec4m4Hw2v6A8H4fdxqTvE3y3OyFIVYK9ClNlHT8vSfhWM49CaiGSmuB1QQ4t2yKvadQW+b9pDqikcVYfVjb4X4fOw99sKIpR05OapOWipCxORvQv8NfpMR5CN9puS3WKpQkJIQ1P81/+tDu7xElN3aNqWKNoaFhMgXHoeUTY5/NeZN6sy4IkJ7hG40tQEWZC8VEQa1PRGy+LIgWllEiDfb1CtuFYXUCwkxzmrqF5duRzUJ7X7NgTEMlfQ4KCG0px+PWFD7pkUIO05/gVhZHm8pob37aMSCRtnahPb8gxE1brPRIGx/LqLiKu6qhJ/7FtVdwKsSNj7TFpm8ksyE0LYHH4iocnnNCO3zpyFyqi6QNiLEvbMMLu7qJl9pE9oTrENaDDkz7SQdfUJwHg+iyEg/z7MCof29+ZCRqrMMGhFGp/wfMFK15xgTQnvI3z5S6VK3HMmI0Pb+3jxS2aBiqnVVQtveo/UaM5BDq92qbERo95Zve41kU/3uTwNC+/tNEw7lJe48GmG4NG7f8BqbO6POqGaEdmOPdHOvtohr2FTTkNC2g90rhyp1zyZ3KIMI42TeFzE6pFoaNRah3RgvX8HI2QZyaSuE0LbbY7RWo2q+g7ID0QsIQ3VqZXTICFqEAya0G8MDQnK2VJSeYO8PhzDUdUfx3WNOnDVGIRwKoW239hbudtVpbou7f2oLiTAcrJN5E8siHcIGoDuvs0IjDBV0/hw4ZPgR86Hp8i4RJmEorzPnyttkysUpm+2GOKPzLmTCUMFqOlL2+SikI2y0uKKX+OMT2lH3r8760tSvEYnKS5qXaTZ5Ck+1EMbyJ/uNRUl8aY4azYn+D2t+nNTWnqE+wlhB73exOyxDUhaSUOrECv+BhD9wrcthd/7t4dpdXjUTJmoHre512N9Pp+v1erBeTxf7/vjabXkv6B7yGsK36v+f8H8lCenquIydswAAAABJRU5ErkJggg==;" parent="1" vertex="1">
          <mxGeometry x="-2811.79" y="-4722.43" width="87.57" height="87.57" as="geometry" />
        </mxCell>
      </root>
    </mxGraphModel>
  </diagram>
</mxfile>
